<?xml version="1.0" encoding="UTF-8"?>
<!--Generator: Apple Native CoreSVG 149-->
<!DOCTYPE svg
PUBLIC "-//W3C//DTD SVG 1.1//EN"
       "http://www.w3.org/Graphics/SVG/1.1/DTD/svg11.dtd">
<svg version="1.1" xmlns="http://www.w3.org/2000/svg" xmlns:xlink="http://www.w3.org/1999/xlink" width="3300" height="2200">
 <!--glyph: "", point size: 100.0, font version: "17.0d9e1", template writer version: "59"-->
 <style>.multicolor-0:systemGrayColor {fill:#8E8E93;opacity:1.0}
.multicolor-1:systemRedColor {fill:#FF3B30;opacity:1.0}
.multicolor-2:systemYellowColor {fill:#FFCC00;opacity:1.0}
.multicolor-3:systemGreenColor {fill:#28CD41;opacity:1.0}
.multicolor-4:systemRedColor {fill:#FF3B30;opacity:1.0}

.SFSymbolsPreview28CD41 {fill:#28CD41;opacity:1.0}
.SFSymbolsPreview8E8E93 {fill:#8E8E93;opacity:1.0}
.SFSymbolsPreviewFF3B30 {fill:#FF3B30;opacity:1.0}
.SFSymbolsPreviewFFCC00 {fill:#FFCC00;opacity:1.0}
</style>
 <g id="Notes">
  <rect height="2200" id="artboard" style="fill:white;opacity:1" width="3300" x="0" y="0"/>
  <line style="fill:none;stroke:black;opacity:1;stroke-width:0.5;" x1="263" x2="3036" y1="292" y2="292"/>
  <text style="stroke:none;fill:black;font-family:sans-serif;font-size:13;font-weight:bold;" transform="matrix(1 0 0 1 263 322)">Weight/Scale Variations</text>
  <text style="stroke:none;fill:black;font-family:sans-serif;font-size:13;text-anchor:middle;" transform="matrix(1 0 0 1 559.711 322)">Ultralight</text>
  <text style="stroke:none;fill:black;font-family:sans-serif;font-size:13;text-anchor:middle;" transform="matrix(1 0 0 1 856.422 322)">Thin</text>
  <text style="stroke:none;fill:black;font-family:sans-serif;font-size:13;text-anchor:middle;" transform="matrix(1 0 0 1 1153.13 322)">Light</text>
  <text style="stroke:none;fill:black;font-family:sans-serif;font-size:13;text-anchor:middle;" transform="matrix(1 0 0 1 1449.84 322)">Regular</text>
  <text style="stroke:none;fill:black;font-family:sans-serif;font-size:13;text-anchor:middle;" transform="matrix(1 0 0 1 1746.56 322)">Medium</text>
  <text style="stroke:none;fill:black;font-family:sans-serif;font-size:13;text-anchor:middle;" transform="matrix(1 0 0 1 2043.27 322)">Semibold</text>
  <text style="stroke:none;fill:black;font-family:sans-serif;font-size:13;text-anchor:middle;" transform="matrix(1 0 0 1 2339.98 322)">Bold</text>
  <text style="stroke:none;fill:black;font-family:sans-serif;font-size:13;text-anchor:middle;" transform="matrix(1 0 0 1 2636.69 322)">Heavy</text>
  <text style="stroke:none;fill:black;font-family:sans-serif;font-size:13;text-anchor:middle;" transform="matrix(1 0 0 1 2933.4 322)">Black</text>
  <line style="fill:none;stroke:black;opacity:1;stroke-width:0.5;" x1="263" x2="3036" y1="1903" y2="1903"/>
  <g transform="matrix(1 0 0 1 263 1933)">
   <path d="M9.24805 0.830078Q10.8691 0.830078 12.2949 0.214844Q13.7207-0.400391 14.8096-1.49414Q15.8984-2.58789 16.5186-4.01367Q17.1387-5.43945 17.1387-7.05078Q17.1387-8.66211 16.5186-10.0879Q15.8984-11.5137 14.8047-12.6074Q13.7109-13.7012 12.2852-14.3164Q10.8594-14.9316 9.23828-14.9316Q7.62695-14.9316 6.20117-14.3164Q4.77539-13.7012 3.69141-12.6074Q2.60742-11.5137 1.9873-10.0879Q1.36719-8.66211 1.36719-7.05078Q1.36719-5.43945 1.9873-4.01367Q2.60742-2.58789 3.69629-1.49414Q4.78516-0.400391 6.21094 0.214844Q7.63672 0.830078 9.24805 0.830078ZM9.24805-0.654297Q7.91992-0.654297 6.7627-1.14746Q5.60547-1.64062 4.73145-2.51953Q3.85742-3.39844 3.36426-4.56055Q2.87109-5.72266 2.87109-7.05078Q2.87109-8.37891 3.35938-9.54102Q3.84766-10.7031 4.72168-11.582Q5.5957-12.4609 6.75293-12.9541Q7.91016-13.4473 9.23828-13.4473Q10.5762-13.4473 11.7334-12.9541Q12.8906-12.4609 13.7695-11.582Q14.6484-10.7031 15.1465-9.54102Q15.6445-8.37891 15.6445-7.05078Q15.6445-5.72266 15.1514-4.56055Q14.6582-3.39844 13.7842-2.51953Q12.9102-1.64062 11.748-1.14746Q10.5859-0.654297 9.24805-0.654297ZM5.83984-7.04102Q5.83984-6.71875 6.04492-6.51855Q6.25-6.31836 6.5918-6.31836L8.50586-6.31836L8.50586-4.39453Q8.50586-4.0625 8.70605-3.85742Q8.90625-3.65234 9.22852-3.65234Q9.56055-3.65234 9.76562-3.85742Q9.9707-4.0625 9.9707-4.39453L9.9707-6.31836L11.8945-6.31836Q12.2266-6.31836 12.4316-6.51855Q12.6367-6.71875 12.6367-7.04102Q12.6367-7.37305 12.4316-7.57812Q12.2266-7.7832 11.8945-7.7832L9.9707-7.7832L9.9707-9.69727Q9.9707-10.0391 9.76562-10.2441Q9.56055-10.4492 9.22852-10.4492Q8.90625-10.4492 8.70605-10.2441Q8.50586-10.0391 8.50586-9.69727L8.50586-7.7832L6.5918-7.7832Q6.25-7.7832 6.04492-7.57812Q5.83984-7.37305 5.83984-7.04102Z"/>
  </g>
  <g transform="matrix(1 0 0 1 281.867 1933)">
   <path d="M11.709 2.91016Q13.75 2.91016 15.5518 2.12891Q17.3535 1.34766 18.7305-0.0292969Q20.1074-1.40625 20.8887-3.20801Q21.6699-5.00977 21.6699-7.05078Q21.6699-9.0918 20.8887-10.8936Q20.1074-12.6953 18.7305-14.0723Q17.3535-15.4492 15.5469-16.2305Q13.7402-17.0117 11.6992-17.0117Q9.6582-17.0117 7.85645-16.2305Q6.05469-15.4492 4.68262-14.0723Q3.31055-12.6953 2.5293-10.8936Q1.74805-9.0918 1.74805-7.05078Q1.74805-5.00977 2.5293-3.20801Q3.31055-1.40625 4.6875-0.0292969Q6.06445 1.34766 7.86621 2.12891Q9.66797 2.91016 11.709 2.91016ZM11.709 1.25Q9.98047 1.25 8.47656 0.605469Q6.97266-0.0390625 5.83496-1.17676Q4.69727-2.31445 4.05762-3.81836Q3.41797-5.32227 3.41797-7.05078Q3.41797-8.7793 4.05762-10.2832Q4.69727-11.7871 5.83008-12.9297Q6.96289-14.0723 8.4668-14.7119Q9.9707-15.3516 11.6992-15.3516Q13.4277-15.3516 14.9316-14.7119Q16.4355-14.0723 17.5781-12.9297Q18.7207-11.7871 19.3652-10.2832Q20.0098-8.7793 20.0098-7.05078Q20.0098-5.32227 19.3701-3.81836Q18.7305-2.31445 17.5928-1.17676Q16.4551-0.0390625 14.9463 0.605469Q13.4375 1.25 11.709 1.25ZM7.39258-7.04102Q7.39258-6.68945 7.62695-6.46484Q7.86133-6.24023 8.23242-6.24023L10.8789-6.24023L10.8789-3.57422Q10.8789-3.21289 11.1035-2.9834Q11.3281-2.75391 11.6797-2.75391Q12.0508-2.75391 12.2852-2.9834Q12.5195-3.21289 12.5195-3.57422L12.5195-6.24023L15.1758-6.24023Q15.5371-6.24023 15.7715-6.46484Q16.0059-6.68945 16.0059-7.04102Q16.0059-7.41211 15.7715-7.6416Q15.5371-7.87109 15.1758-7.87109L12.5195-7.87109L12.5195-10.5176Q12.5195-10.8984 12.2852-11.1279Q12.0508-11.3574 11.6797-11.3574Q11.3281-11.3574 11.1035-11.1279Q10.8789-10.8984 10.8789-10.5176L10.8789-7.87109L8.23242-7.87109Q7.85156-7.87109 7.62207-7.6416Q7.39258-7.41211 7.39258-7.04102Z"/>
  </g>
  <g transform="matrix(1 0 0 1 305.646 1933)">
   <path d="M14.9707 5.66406Q17.0605 5.66406 18.96 5.01465Q20.8594 4.36523 22.4512 3.19336Q24.043 2.02148 25.2197 0.429688Q26.3965-1.16211 27.0459-3.06641Q27.6953-4.9707 27.6953-7.05078Q27.6953-9.14062 27.0459-11.04Q26.3965-12.9395 25.2197-14.5312Q24.043-16.123 22.4512-17.2998Q20.8594-18.4766 18.9551-19.126Q17.0508-19.7754 14.9609-19.7754Q12.8711-19.7754 10.9717-19.126Q9.07227-18.4766 7.48535-17.2998Q5.89844-16.123 4.72168-14.5312Q3.54492-12.9395 2.90039-11.04Q2.25586-9.14062 2.25586-7.05078Q2.25586-4.9707 2.90527-3.06641Q3.55469-1.16211 4.72656 0.429688Q5.89844 2.02148 7.49023 3.19336Q9.08203 4.36523 10.9814 5.01465Q12.8809 5.66406 14.9707 5.66406ZM14.9707 3.84766Q13.1641 3.84766 11.5283 3.2959Q9.89258 2.74414 8.53516 1.74805Q7.17773 0.751953 6.17676-0.610352Q5.17578-1.97266 4.62891-3.6084Q4.08203-5.24414 4.08203-7.05078Q4.08203-8.86719 4.62891-10.5029Q5.17578-12.1387 6.17188-13.501Q7.16797-14.8633 8.52539-15.8594Q9.88281-16.8555 11.5186-17.4023Q13.1543-17.9492 14.9609-17.9492Q16.7773-17.9492 18.4131-17.4023Q20.0488-16.8555 21.4111-15.8594Q22.7734-14.8633 23.7695-13.501Q24.7656-12.1387 25.3174-10.5029Q25.8691-8.86719 25.8691-7.05078Q25.8789-5.24414 25.332-3.6084Q24.7852-1.97266 23.7842-0.610352Q22.7832 0.751953 21.4209 1.74805Q20.0586 2.74414 18.4229 3.2959Q16.7871 3.84766 14.9707 3.84766ZM9.45312-7.04102Q9.45312-6.66016 9.71191-6.41113Q9.9707-6.16211 10.3711-6.16211L14.0625-6.16211L14.0625-2.46094Q14.0625-2.06055 14.3115-1.80664Q14.5605-1.55273 14.9414-1.55273Q15.3516-1.55273 15.6055-1.80664Q15.8594-2.06055 15.8594-2.46094L15.8594-6.16211L19.5605-6.16211Q19.9609-6.16211 20.2148-6.41113Q20.4688-6.66016 20.4688-7.04102Q20.4688-7.45117 20.2148-7.70508Q19.9609-7.95898 19.5605-7.95898L15.8594-7.95898L15.8594-11.6504Q15.8594-12.0605 15.6055-12.3145Q15.3516-12.5684 14.9414-12.5684Q14.5605-12.5684 14.3115-12.3096Q14.0625-12.0508 14.0625-11.6504L14.0625-7.95898L10.3711-7.95898Q9.96094-7.95898 9.70703-7.70508Q9.45312-7.45117 9.45312-7.04102Z"/>
  </g>
  <text style="stroke:none;fill:black;font-family:sans-serif;font-size:13;font-weight:bold;" transform="matrix(1 0 0 1 263 1953)">Design Variations</text>
  <text style="stroke:none;fill:black;font-family:sans-serif;font-size:13;" transform="matrix(1 0 0 1 263 1971)">Symbols are supported in up to nine weights and three scales.</text>
  <text style="stroke:none;fill:black;font-family:sans-serif;font-size:13;" transform="matrix(1 0 0 1 263 1989)">For optimal layout with text and other symbols, vertically align</text>
  <text style="stroke:none;fill:black;font-family:sans-serif;font-size:13;" transform="matrix(1 0 0 1 263 2007)">symbols with the adjacent text.</text>
  <line style="fill:none;stroke:#00AEEF;stroke-width:0.5;opacity:1.0;" x1="776" x2="776" y1="1919" y2="1933"/>
  <g transform="matrix(1 0 0 1 776 1933)">
   <path d="M3.31055 0.15625Q3.70117 0.15625 3.91602-0.00976562Q4.13086-0.175781 4.26758-0.585938L5.52734-4.0332L11.2891-4.0332L12.5488-0.585938Q12.6855-0.175781 12.9004-0.00976562Q13.1152 0.15625 13.4961 0.15625Q13.8867 0.15625 14.1162-0.0585938Q14.3457-0.273438 14.3457-0.644531Q14.3457-0.869141 14.2383-1.17188L9.6582-13.3691Q9.48242-13.8184 9.17969-14.043Q8.87695-14.2676 8.4082-14.2676Q7.5-14.2676 7.17773-13.3789L2.59766-1.16211Q2.49023-0.859375 2.49023-0.634766Q2.49023-0.263672 2.70996-0.0537109Q2.92969 0.15625 3.31055 0.15625ZM6.00586-5.51758L8.37891-12.0898L8.42773-12.0898L10.8008-5.51758Z"/>
  </g>
  <line style="fill:none;stroke:#00AEEF;stroke-width:0.5;opacity:1.0;" x1="793.197" x2="793.197" y1="1919" y2="1933"/>
  <text style="stroke:none;fill:black;font-family:sans-serif;font-size:13;font-weight:bold;" transform="matrix(1 0 0 1 776 1953)">Margins</text>
  <text style="stroke:none;fill:black;font-family:sans-serif;font-size:13;" transform="matrix(1 0 0 1 776 1971)">Leading and trailing margins on the left and right side of each symbol</text>
  <text style="stroke:none;fill:black;font-family:sans-serif;font-size:13;" transform="matrix(1 0 0 1 776 1989)">can be adjusted by modifying the x-location of the margin guidelines.</text>
  <text style="stroke:none;fill:black;font-family:sans-serif;font-size:13;" transform="matrix(1 0 0 1 776 2007)">Modifications are automatically applied proportionally to all</text>
  <text style="stroke:none;fill:black;font-family:sans-serif;font-size:13;" transform="matrix(1 0 0 1 776 2025)">scales and weights.</text>
  <g transform="matrix(1 0 0 1 1289 1933)">
   <path d="M2.8418 1.86523L4.54102 3.57422Q5.18555 4.22852 5.90332 4.17969Q6.62109 4.13086 7.31445 3.35938L18.0078-8.42773L17.041-9.4043L6.42578 2.27539Q6.16211 2.57812 5.89355 2.61719Q5.625 2.65625 5.27344 2.30469L4.10156 1.14258Q3.75 0.791016 3.79395 0.522461Q3.83789 0.253906 4.14062-0.0195312L15.6152-10.8203L14.6387-11.7871L3.04688-0.898438Q2.30469-0.214844 2.25098 0.498047Q2.19727 1.21094 2.8418 1.86523ZM9.25781-16.3281Q8.94531-16.0254 8.90625-15.6348Q8.86719-15.2441 9.04297-14.9512Q9.21875-14.6777 9.55566-14.541Q9.89258-14.4043 10.3809-14.5215Q11.4746-14.7754 12.5977-14.7314Q13.7207-14.6875 14.7949-13.9844L14.209-12.5293Q13.9551-11.9043 14.0674-11.4404Q14.1797-10.9766 14.5801-10.5664L16.875-8.25195Q17.2363-7.88086 17.5781-7.82227Q17.9199-7.76367 18.3398-7.8418L19.4043-8.03711L20.0684-7.36328L20.0293-6.80664Q20-6.43555 20.1221-6.12305Q20.2441-5.81055 20.6055-5.44922L21.3672-4.70703Q21.7285-4.3457 22.1533-4.33105Q22.5781-4.31641 22.9297-4.66797L25.8398-7.58789Q26.1914-7.93945 26.1816-8.35449Q26.1719-8.76953 25.8105-9.13086L25.0391-9.89258Q24.6875-10.2539 24.3799-10.3857Q24.0723-10.5176 23.7109-10.4883L23.1348-10.4395L22.4902-11.0742L22.7344-12.1973Q22.832-12.6172 22.6953-12.9834Q22.5586-13.3496 22.1191-13.7891L19.9219-15.9766Q18.6719-17.2168 17.2607-17.8369Q15.8496-18.457 14.4189-18.4814Q12.9883-18.5059 11.665-17.959Q10.3418-17.4121 9.25781-16.3281ZM10.752-15.957Q11.6602-16.6211 12.7002-16.9043Q13.7402-17.1875 14.8047-17.085Q15.8691-16.9824 16.8701-16.5137Q17.8711-16.0449 18.7012-15.2051L21.1328-12.793Q21.3086-12.6172 21.3525-12.4512Q21.3965-12.2852 21.3379-12.0312L21.0156-10.5469L22.5195-9.0625L23.5059-9.12109Q23.6914-9.13086 23.7891-9.09668Q23.8867-9.0625 24.0332-8.91602L24.6094-8.33984L22.168-5.89844L21.5918-6.47461Q21.4453-6.62109 21.4062-6.71875Q21.3672-6.81641 21.377-7.01172L21.4453-7.98828L19.9512-9.47266L18.4277-9.21875Q18.1836-9.16992 18.042-9.2041Q17.9004-9.23828 17.7148-9.41406L15.7129-11.416Q15.5176-11.5918 15.4932-11.7529Q15.4688-11.9141 15.5859-12.1875L16.4648-14.2773Q15.293-15.3711 13.8281-15.791Q12.3633-16.2109 10.8398-15.7617Q10.7227-15.7324 10.6885-15.8057Q10.6543-15.8789 10.752-15.957Z"/>
  </g>
  <text style="stroke:none;fill:black;font-family:sans-serif;font-size:13;font-weight:bold;" transform="matrix(1 0 0 1 1289 1953)">Exporting</text>
  <text style="stroke:none;fill:black;font-family:sans-serif;font-size:13;" transform="matrix(1 0 0 1 1289 1971)">Symbols should be outlined when exporting to ensure the</text>
  <text style="stroke:none;fill:black;font-family:sans-serif;font-size:13;" transform="matrix(1 0 0 1 1289 1989)">design is preserved when submitting to Xcode.</text>
  <text id="template-version" style="stroke:none;fill:black;font-family:sans-serif;font-size:13;text-anchor:end;" transform="matrix(1 0 0 1 3036 1933)">Template v.3.0</text>
  <text style="stroke:none;fill:black;font-family:sans-serif;font-size:13;text-anchor:end;" transform="matrix(1 0 0 1 3036 1951)">Requires Xcode 13 or greater</text>
  <text id="descriptive-name" style="stroke:none;fill:black;font-family:sans-serif;font-size:13;text-anchor:end;" transform="matrix(1 0 0 1 3036 1969)">Generated from custom.paintpalette.fill</text>
  <text style="stroke:none;fill:black;font-family:sans-serif;font-size:13;text-anchor:end;" transform="matrix(1 0 0 1 3036 1987)">Typeset at 100 points</text>
  <text style="stroke:none;fill:black;font-family:sans-serif;font-size:13;" transform="matrix(1 0 0 1 263 726)">Small</text>
  <text style="stroke:none;fill:black;font-family:sans-serif;font-size:13;" transform="matrix(1 0 0 1 263 1156)">Medium</text>
  <text style="stroke:none;fill:black;font-family:sans-serif;font-size:13;" transform="matrix(1 0 0 1 263 1586)">Large</text>
 </g>
 <g id="Guides">
  <g id="H-reference" style="fill:#27AAE1;stroke:none;" transform="matrix(1 0 0 1 339 696)">
   <path d="M0.993347 0L3.6377 0L29.3282-67.1326L30.0301-67.1326L30.0301-70.459L28.1227-70.459ZM11.6882-24.4797L46.9818-24.4797L46.2311-26.7288L12.4382-26.7288ZM55.1193 0L57.7637 0L30.6381-70.459L29.4327-70.459L29.4327-67.1326Z"/>
  </g>
  <line id="Baseline-S" style="fill:none;stroke:#27AAE1;opacity:1;stroke-width:0.5;" x1="263" x2="3036" y1="696" y2="696"/>
  <line id="Capline-S" style="fill:none;stroke:#27AAE1;opacity:1;stroke-width:0.5;" x1="263" x2="3036" y1="625.541" y2="625.541"/>
  <g id="H-reference" style="fill:#27AAE1;stroke:none;" transform="matrix(1 0 0 1 339 1126)">
   <path d="M0.993347 0L3.6377 0L29.3282-67.1326L30.0301-67.1326L30.0301-70.459L28.1227-70.459ZM11.6882-24.4797L46.9818-24.4797L46.2311-26.7288L12.4382-26.7288ZM55.1193 0L57.7637 0L30.6381-70.459L29.4327-70.459L29.4327-67.1326Z"/>
  </g>
  <line id="Baseline-M" style="fill:none;stroke:#27AAE1;opacity:1;stroke-width:0.5;" x1="263" x2="3036" y1="1126" y2="1126"/>
  <line id="Capline-M" style="fill:none;stroke:#27AAE1;opacity:1;stroke-width:0.5;" x1="263" x2="3036" y1="1055.54" y2="1055.54"/>
  <g id="H-reference" style="fill:#27AAE1;stroke:none;" transform="matrix(1 0 0 1 339 1556)">
   <path d="M0.993347 0L3.6377 0L29.3282-67.1326L30.0301-67.1326L30.0301-70.459L28.1227-70.459ZM11.6882-24.4797L46.9818-24.4797L46.2311-26.7288L12.4382-26.7288ZM55.1193 0L57.7637 0L30.6381-70.459L29.4327-70.459L29.4327-67.1326Z"/>
  </g>
  <line id="Baseline-L" style="fill:none;stroke:#27AAE1;opacity:1;stroke-width:0.5;" x1="263" x2="3036" y1="1556" y2="1556"/>
  <line id="Capline-L" style="fill:none;stroke:#27AAE1;opacity:1;stroke-width:0.5;" x1="263" x2="3036" y1="1485.54" y2="1485.54"/>
  <line id="left-margin-Regular-M" style="fill:none;stroke:#00AEEF;stroke-width:0.5;opacity:1.0;" x1="1382.01" x2="1382.01" y1="1030.78" y2="1150.12"/>
  <line id="right-margin-Regular-M" style="fill:none;stroke:#00AEEF;stroke-width:0.5;opacity:1.0;" x1="1517.68" x2="1517.68" y1="1030.78" y2="1150.12"/>
 </g>
 <g id="Symbols">
  <g id="Black-L" transform="matrix(1 0 0 1 2838.87 1556)">
   <path class="multicolor-0:systemGrayColor SFSymbolsPreview8E8E93" d="M99.4414 34.2041Q115.09 34.2041 126.843 30.6419Q138.596 27.0797 145.122 20.674Q151.648 14.2682 151.648 5.78906Q151.648 0.602635 150.157-2.742Q148.665-6.08663 146.69-8.45483Q144.715-10.823 143.222-13.0149Q141.73-15.2069 141.73-18.0283Q141.73-20.5924 144.297-22.5892Q146.864-24.5861 150.929-26.5382Q154.994-28.4903 159.571-30.9597Q164.148-33.4292 168.203-36.8884Q172.258-40.3477 174.824-45.3505Q177.39-50.3534 177.39-57.3735Q177.39-71.5481 168.22-82.1686Q159.048-92.7891 142.539-98.6654Q126.031-104.542 104.047-104.542Q83.314-104.542 66.3306-99.3861Q49.3473-94.2308 37.1157-84.8274Q24.8842-75.4242 18.2773-62.5599Q11.6705-49.6957 11.6705-34.3167Q11.6705-18.9154 17.9557-6.30723Q24.2407 6.30103 35.8692 15.345Q47.4977 24.389 63.6261 29.2965Q79.7546 34.2041 99.4414 34.2041ZM99.8961 8.24411Q94.3204 8.24411 89.7138 5.48609Q85.1072 2.72806 82.3789-1.91755Q79.6507-6.56331 79.6507-12.1389Q79.6507-17.7353 82.3789-22.3712Q85.1072-27.0071 89.7138-29.7645Q94.3204-32.5219 99.8961-32.5219Q105.55-32.5219 110.196-29.7645Q114.842-27.0071 117.571-22.3712Q120.299-17.7353 120.299-12.1389Q120.299-3.18091 114.615 2.53164Q108.932 8.24411 99.8961 8.24411Z"/>
   <path class="multicolor-1:systemRedColor SFSymbolsPreviewFF3B30" d="M43.4883-25.1456Q38.8859-25.1456 35.6215-28.4788Q32.3571-31.8121 32.3571-36.3572Q32.3571-40.9205 35.6521-44.1747Q38.9472-47.4289 43.4883-47.4289Q48.1151-47.4289 51.3673-44.2059Q54.6195-40.9829 54.6195-36.3572Q54.6195-31.8121 51.3661-28.4788Q48.1127-25.1456 43.4883-25.1456Z"/>
   <path class="multicolor-2:systemYellowColor SFSymbolsPreviewFFCC00" d="M70.5152-49.3984Q64.8905-49.3984 60.9243-53.3431Q56.9582-57.2878 56.9582-62.9113Q56.9582-68.5711 60.9243-72.4278Q64.8905-76.2842 70.5152-76.2842Q76.0958-76.2842 80.0808-72.4272Q84.0658-68.5699 84.0658-62.9113Q84.0658-57.2878 80.0814-53.3431Q76.097-49.3984 70.5152-49.3984Z"/>
   <path class="multicolor-3:systemGreenColor SFSymbolsPreview28CD41" d="M107.225-60.5969Q102.616-60.5969 99.3084-63.8242Q96.0015-67.0514 96.0015-71.6805Q96.0015-76.3486 99.3084-79.5757Q102.616-82.803 107.225-82.803Q111.777-82.803 115.043-79.5763Q118.309-76.3497 118.309-71.6805Q118.309-67.0502 115.043-63.8236Q111.777-60.5969 107.225-60.5969Z"/>
   <path class="multicolor-4:systemRedColor SFSymbolsPreviewFF3B30" d="M140.57-55.4456Q136.802-55.4456 134.1-58.069Q131.397-60.6925 131.397-64.5163Q131.397-68.2609 134.1-70.963Q136.804-73.665 140.57-73.665Q144.371-73.665 147.023-70.7878Q149.675-67.9104 149.675-64.5163Q149.675-61.0417 147.023-58.2437Q144.372-55.4456 140.57-55.4456Z"/>
  </g>
  <g id="Heavy-L" transform="matrix(1 0 0 1 2543.89 1556)">
   <path class="multicolor-0:systemGrayColor SFSymbolsPreview8E8E93" d="M97.8895 32.5696Q112.944 32.5696 124.254 29.1692Q135.563 25.7688 141.845 19.6549Q148.127 13.5409 148.127 5.45823Q148.127 0.409167 146.608-2.86763Q145.088-6.14441 143.081-8.4972Q141.074-10.8499 139.552-13.0369Q138.03-15.2239 138.03-18.0432Q138.03-20.6135 140.62-22.6274Q143.209-24.6414 147.302-26.6073Q151.395-28.5732 155.995-31.0365Q160.595-33.4998 164.673-36.9163Q168.75-40.3328 171.337-45.256Q173.924-50.1791 173.924-57.0702Q173.924-70.8897 164.983-81.2391Q156.043-91.5886 139.97-97.3168Q123.898-103.045 102.509-103.045Q82.1278-103.045 65.4273-98.0265Q48.7269-93.0082 36.696-83.8356Q24.6652-74.6632 18.1678-62.0658Q11.6705-49.4685 11.6705-34.3304Q11.6705-19.3036 17.8462-6.99685Q24.0218 5.31004 35.4495 14.1464Q46.8772 22.9827 62.7181 27.7762Q78.559 32.5696 97.8895 32.5696ZM97.891 7.12589Q92.5541 7.12589 88.1401 4.48255Q83.7262 1.83921 81.1079-2.6093Q78.4897-7.05794 78.4897-12.3947Q78.4897-17.7618 81.1079-22.1981Q83.7262-26.6344 88.1401-29.2749Q92.5541-31.9154 97.891-31.9154Q103.297-31.9154 107.748-29.2749Q112.2-26.6344 114.818-22.1981Q117.436-17.7618 117.436-12.3947Q117.436-3.92806 111.932 1.59896Q106.427 7.12589 97.891 7.12589Z"/>
   <path class="multicolor-1:systemRedColor SFSymbolsPreviewFF3B30" d="M42.9649-25.5522Q38.4563-25.5522 35.2454-28.8227Q32.0346-32.0933 32.0346-36.5629Q32.0346-41.0224 35.2879-44.2327Q38.5413-47.443 42.9649-47.443Q47.5205-47.443 50.7079-44.278Q53.8952-41.113 53.8952-36.5629Q53.8952-32.0933 50.7023-28.8227Q47.5093-25.5522 42.9649-25.5522Z"/>
   <path class="multicolor-2:systemYellowColor SFSymbolsPreviewFFCC00" d="M69.2848-49.2881Q63.6778-49.2881 59.7317-53.2011Q55.7858-57.1141 55.7858-62.7155Q55.7858-68.3256 59.7317-72.169Q63.6778-76.0123 69.2848-76.0123Q74.8201-76.0123 78.7734-72.1663Q82.7267-68.3201 82.7267-62.7155Q82.7267-57.1141 78.7763-53.2011Q74.8258-49.2881 69.2848-49.2881Z"/>
   <path class="multicolor-3:systemGreenColor SFSymbolsPreview28CD41" d="M105.26-60.1972Q100.717-60.1972 97.4551-63.382Q94.1928-66.5666 94.1928-71.1335Q94.1928-75.7204 97.4551-78.9051Q100.717-82.0898 105.26-82.0898Q109.763-82.0898 112.979-78.9078Q116.196-75.7259 116.196-71.1335Q116.196-66.5611 112.979-63.3792Q109.763-60.1972 105.26-60.1972Z"/>
   <path class="multicolor-4:systemRedColor SFSymbolsPreviewFF3B30" d="M137.688-54.9754Q133.965-54.9754 131.311-57.5541Q128.658-60.1328 128.658-63.8899Q128.658-67.572 131.314-70.2229Q133.97-72.8736 137.688-72.8736Q141.404-72.8736 144.002-70.089Q146.6-67.3043 146.6-63.8899Q146.6-60.395 144.005-57.6852Q141.409-54.9754 137.688-54.9754Z"/>
  </g>
  <g id="Bold-L" transform="matrix(1 0 0 1 2249.27 1556)">
   <path class="multicolor-0:systemGrayColor SFSymbolsPreview8E8E93" d="M95.9983 30.5859Q110.338 30.5859 121.117 27.3853Q131.895 24.1847 137.885 18.4319Q143.874 12.6792 143.874 5.08816Q143.874 0.200798 142.324-2.98406Q140.774-6.16888 138.728-8.49509Q136.683-10.8212 135.126-13.0079Q133.569-15.1948 133.569-18.0437Q133.569-20.6665 136.186-22.7183Q138.803-24.7702 142.926-26.7515Q147.05-28.7328 151.677-31.1772Q156.304-33.6217 160.409-36.977Q164.513-40.3323 167.123-45.1556Q169.733-49.9789 169.733-56.731Q169.733-70.105 161.073-80.1164Q152.413-90.1278 136.864-95.6716Q121.315-101.215 100.634-101.215Q80.675-101.215 64.3205-96.3623Q47.9659-91.5094 36.181-82.6137Q24.3962-73.7181 18.0333-61.4475Q11.6705-49.1768 11.6705-34.3459Q11.6705-19.7727 17.7116-7.83121Q23.7528 4.11044 34.9345 12.6931Q46.1163 21.2758 61.6073 25.9308Q77.0984 30.5859 95.9983 30.5859ZM95.4686 5.83218Q90.4015 5.83218 86.2071 3.31981Q82.0127 0.807444 79.5216-3.41391Q77.0305-7.63536 77.0305-12.7024Q77.0305-17.8075 79.5216-22.0165Q82.0127-26.2256 86.2071-28.7313Q90.4015-31.2369 95.4686-31.2369Q100.59-31.2369 104.818-28.7313Q109.046-26.2256 111.537-22.0165Q114.028-17.8075 114.028-12.7024Q114.028-4.7906 108.731 0.520822Q103.434 5.83218 95.4686 5.83218Z"/>
   <path class="multicolor-1:systemRedColor SFSymbolsPreviewFF3B30" d="M42.3044-26.1113Q37.9409-26.1113 34.8141-29.2864Q31.6873-32.4615 31.6873-36.8091Q31.6873-41.123 34.8644-44.2535Q38.0417-47.3839 42.3044-47.3839Q46.7457-47.3839 49.8337-44.3105Q52.9217-41.2371 52.9217-36.8091Q52.9217-32.4615 49.8205-29.2864Q46.7192-26.1113 42.3044-26.1113Z"/>
   <path class="multicolor-2:systemYellowColor SFSymbolsPreviewFFCC00" d="M67.7557-49.1647Q62.1792-49.1647 58.2638-53.0356Q54.3485-56.9064 54.3485-62.4698Q54.3485-68.0109 58.2638-71.8315Q62.1792-75.6519 67.7557-75.6519Q73.2298-75.6519 77.141-71.8249Q81.0521-67.9978 81.0521-62.4698Q81.0521-56.9064 77.1477-53.0356Q73.2431-49.1647 67.7557-49.1647Z"/>
   <path class="multicolor-3:systemGreenColor SFSymbolsPreview28CD41" d="M102.906-59.75Q98.4632-59.75 95.2695-62.8698Q92.0759-65.9896 92.0759-70.4573Q92.0759-74.9293 95.2695-78.0491Q98.4632-81.1689 102.906-81.1689Q107.333-81.1689 110.473-78.0556Q113.613-74.9425 113.613-70.4573Q113.613-65.9765 110.473-62.8633Q107.333-59.75 102.906-59.75Z"/>
   <path class="multicolor-4:systemRedColor SFSymbolsPreviewFF3B30" d="M134.205-54.4734Q130.557-54.4734 127.98-56.9833Q125.403-59.4933 125.403-63.1436Q125.403-66.7265 127.987-69.2972Q130.571-71.8679 134.205-71.8679Q137.791-71.8679 140.309-69.2096Q142.827-66.5513 142.827-63.1436Q142.827-59.6554 140.315-57.0644Q137.804-54.4734 134.205-54.4734Z"/>
  </g>
  <g id="Semibold-L" transform="matrix(1 0 0 1 1954.01 1556)">
   <path class="multicolor-0:systemGrayColor SFSymbolsPreview8E8E93" d="M94.6945 29.2183Q108.541 29.2183 118.954 26.1554Q129.366 23.0926 135.154 17.5888Q140.942 12.0851 140.942 4.83304Q140.942 0.0571495 139.371-3.06432Q137.8-6.18575 135.727-8.49363Q133.655-10.8014 132.075-12.988Q130.494-15.1747 130.494-18.0441Q130.494-20.703 133.13-22.7809Q135.765-24.8589 139.909-26.8509Q144.054-28.8428 148.7-31.2742Q153.346-33.7057 157.469-37.0188Q161.592-40.3319 164.217-45.0863Q166.844-49.8408 166.844-56.4971Q166.844-69.5641 158.377-79.3424Q149.91-89.1208 134.722-94.5375Q119.534-99.9542 99.3404-99.9542Q79.6735-99.9542 63.5574-95.2151Q47.4413-90.4761 35.8259-81.7713Q24.2107-73.0667 17.9406-61.0212Q11.6705-48.9758 11.6705-34.3565Q11.6705-20.0962 17.6189-8.40641Q23.5673 3.28345 34.5795 11.6912Q45.5917 20.0991 60.8415 24.6587Q76.0915 29.2183 94.6945 29.2183ZM93.7986 4.9403Q88.9176 4.9403 84.8745 2.51823Q80.8315 0.0961515 78.4279-3.9686Q76.0245-8.03343 76.0245-12.9144Q76.0245-17.839 78.4279-21.8914Q80.8315-25.9437 84.8745-28.3565Q88.9176-30.7692 93.7986-30.7692Q98.7234-30.7692 102.797-28.3565Q106.871-25.9437 109.275-21.8914Q111.678-17.839 111.678-12.9144Q111.678-5.38524 106.525-0.222437Q101.371 4.9403 93.7986 4.9403Z"/>
   <path class="multicolor-1:systemRedColor SFSymbolsPreviewFF3B30" d="M41.849-26.4968Q37.5856-26.4968 34.5167-29.6061Q31.4478-32.7153 31.4478-36.9788Q31.4478-41.1924 34.5725-44.2678Q37.6973-47.3431 41.849-47.3431Q46.2115-47.3431 49.231-44.3329Q52.2506-41.3226 52.2506-36.9788Q52.2506-32.7153 49.2126-29.6061Q46.1745-26.4968 41.849-26.4968Z"/>
   <path class="multicolor-2:systemYellowColor SFSymbolsPreviewFFCC00" d="M66.7016-49.0797Q61.1461-49.0797 57.2518-52.9214Q53.3576-56.7632 53.3576-62.3004Q53.3576-67.7939 57.2518-71.5987Q61.1461-75.4034 66.7016-75.4034Q72.1335-75.4034 76.0156-71.5896Q79.8977-67.7756 79.8977-62.3004Q79.8977-56.7632 76.0249-52.9214Q72.1521-49.0797 66.7016-49.0797Z"/>
   <path class="multicolor-3:systemGreenColor SFSymbolsPreview28CD41" d="M101.283-59.4418Q96.909-59.4418 93.7627-62.5168Q90.6165-65.5917 90.6165-69.9912Q90.6165-74.384 93.7627-77.459Q96.909-80.534 101.283-80.534Q105.657-80.534 108.745-77.4682Q111.832-74.4023 111.832-69.9912Q111.832-65.5734 108.745-62.5076Q105.657-59.4418 101.283-59.4418Z"/>
   <path class="multicolor-4:systemRedColor SFSymbolsPreviewFF3B30" d="M131.803-54.1274Q128.208-54.1274 125.684-56.5899Q123.159-59.0524 123.159-62.6291Q123.159-66.1436 125.693-68.6591Q128.227-71.1745 131.803-71.1745Q135.3-71.1745 137.762-68.6034Q140.225-66.0322 140.225-62.6291Q140.225-59.1456 137.771-56.6365Q135.318-54.1274 131.803-54.1274Z"/>
  </g>
  <g id="Medium-L" transform="matrix(1 0 0 1 1658.39 1556)">
   <path class="multicolor-0:systemGrayColor SFSymbolsPreview8E8E93" d="M93.706 28.1814Q107.179 28.1814 117.314 25.2229Q127.449 22.2645 133.084 16.9495Q138.719 11.6346 138.719 4.63959Q138.719-0.0517709 137.132-3.12518Q135.545-6.19854 133.452-8.49252Q131.36-10.7864 129.761-12.9729Q128.163-15.1595 128.163-18.0444Q128.163-20.7307 130.812-22.8284Q133.461-24.9262 137.622-26.9262Q141.783-28.9262 146.443-31.3478Q151.103-33.7693 155.24-37.0505Q159.377-40.3316 162.015-45.0338Q164.653-49.7362 164.653-56.3197Q164.653-69.1539 156.333-78.7555Q148.013-88.3572 133.098-93.6775Q118.183-98.9978 98.3598-98.9978Q78.9141-98.9978 62.9789-94.3452Q47.0436-89.6927 35.5567-81.1326Q24.07-72.5727 17.8702-60.698Q11.6705-48.8233 11.6705-34.3645Q11.6705-20.3414 17.5486-8.84255Q23.4266 2.65639 34.3103 10.9316Q45.1939 19.2068 60.2609 23.6941Q75.328 28.1814 93.706 28.1814ZM92.5324 4.26405Q87.7924 4.26405 83.864 1.91043Q79.9358-0.44318 77.5987-4.38919Q75.2617-8.33526 75.2617-13.0752Q75.2617-17.8629 77.5987-21.7965Q79.9358-25.73 83.864-28.0723Q87.7924-30.4146 92.5324-30.4146Q97.3082-30.4146 101.265-28.0723Q105.223-25.73 107.56-21.7965Q109.897-17.8629 109.897-13.0752Q109.897-5.83611 104.852-0.786008Q99.807 4.26405 92.5324 4.26405Z"/>
   <path class="multicolor-1:systemRedColor SFSymbolsPreviewFF3B30" d="M41.5038-26.789Q37.3162-26.789 34.2912-29.8484Q31.2662-32.9078 31.2662-37.1075Q31.2662-41.245 34.3512-44.2786Q37.4361-47.3122 41.5038-47.3122Q45.8065-47.3122 48.7741-44.3499Q51.7417-41.3875 51.7417-37.1075Q51.7417-32.9078 48.7516-29.8484Q45.7615-26.789 41.5038-26.789Z"/>
   <path class="multicolor-2:systemYellowColor SFSymbolsPreviewFFCC00" d="M65.9024-49.0152Q60.3628-49.0152 56.4845-52.8349Q52.6063-56.6546 52.6063-62.1719Q52.6063-67.6294 56.4845-71.4222Q60.3628-75.215 65.9024-75.215Q71.3022-75.215 75.1623-71.4111Q79.0223-67.6071 79.0223-62.1719Q79.0223-56.6546 75.1736-52.8349Q71.3248-49.0152 65.9024-49.0152Z"/>
   <path class="multicolor-3:systemGreenColor SFSymbolsPreview28CD41" d="M100.053-59.208Q95.7306-59.208 92.6203-62.2491Q89.51-65.2901 89.51-69.6377Q89.51-73.9705 92.6203-77.0116Q95.7306-80.0526 100.053-80.0526Q104.387-80.0526 107.435-77.0227Q110.482-73.9928 110.482-69.6377Q110.482-65.2678 107.435-62.238Q104.387-59.208 100.053-59.208Z"/>
   <path class="multicolor-4:systemRedColor SFSymbolsPreviewFF3B30" d="M129.982-53.865Q126.427-53.865 123.943-56.2916Q121.458-58.7182 121.458-62.239Q121.458-65.7016 123.954-68.1752Q126.45-70.6488 129.982-70.6488Q133.411-70.6488 135.831-68.1437Q138.252-65.6385 138.252-62.239Q138.252-58.759 135.843-56.312Q133.433-53.865 129.982-53.865Z"/>
  </g>
  <g id="Regular-L" transform="matrix(1 0 0 1 1363.11 1556)">
   <path class="multicolor-0:systemGrayColor SFSymbolsPreview8E8E93" d="M92.4165 26.8288Q105.402 26.8288 115.175 24.0066Q124.948 21.1844 130.384 16.1157Q135.82 11.047 135.82 4.38727Q135.82-0.193841 134.211-3.20457Q132.603-6.21523 130.484-8.49108Q128.366-10.7668 126.744-12.9531Q125.122-15.1396 125.122-18.0448Q125.122-20.7668 127.789-22.8904Q130.457-25.014 134.639-27.0245Q138.82-29.035 143.499-31.4437Q148.177-33.8524 152.332-37.0918Q156.488-40.3312 159.141-44.9654Q161.795-49.5996 161.795-56.0884Q161.795-68.6189 153.667-77.99Q145.538-87.3612 130.98-92.5558Q116.422-97.7504 97.0809-97.7504Q77.9236-97.7504 62.2242-93.2105Q46.5247-88.6707 35.2056-80.2995Q23.8866-71.9283 17.7785-60.2764Q11.6705-48.6245 11.6705-34.375Q11.6705-20.6612 17.4568-9.41143Q23.2432 1.83848 33.9591 9.9407Q44.6751 18.043 59.5036 22.4359Q74.3321 26.8288 92.4165 26.8288ZM90.8808 3.38197Q86.3247 3.38197 82.546 1.11766Q78.7675-1.14666 76.5171-4.93779Q74.2668-8.72896 74.2668-13.285Q74.2668-17.8941 76.5171-21.6727Q78.7675-25.4513 82.546-27.7017Q86.3247-29.952 90.8808-29.952Q95.4624-29.952 99.2673-27.7017Q103.072-25.4513 105.322-21.6727Q107.573-17.8941 107.573-13.285Q107.573-6.42421 102.67-1.5211Q97.7667 3.38197 90.8808 3.38197Z"/>
   <path class="multicolor-1:systemRedColor SFSymbolsPreviewFF3B30" d="M41.0535-27.1703Q36.9648-27.1703 33.9971-30.1646Q31.0294-33.1588 31.0294-37.2753Q31.0294-41.3136 34.0624-44.2928Q37.0955-47.2719 41.0535-47.2719Q45.2782-47.2719 48.178-44.372Q51.0779-41.4721 51.0779-37.2753Q51.0779-33.1588 48.1504-30.1646Q45.2229-27.1703 41.0535-27.1703Z"/>
   <path class="multicolor-2:systemYellowColor SFSymbolsPreviewFFCC00" d="M64.8599-48.9311Q59.341-48.9311 55.4836-52.7221Q51.6263-56.5129 51.6263-62.0043Q51.6263-67.4148 55.4836-71.1921Q59.341-74.9693 64.8599-74.9693Q70.2179-74.9693 74.0492-71.1784Q77.8806-67.3874 77.8806-62.0043Q77.8806-56.5129 74.0632-52.7221Q70.2457-48.9311 64.8599-48.9311Z"/>
   <path class="multicolor-3:systemGreenColor SFSymbolsPreview28CD41" d="M98.448-58.9032Q94.1936-58.9032 91.1301-61.8999Q88.0666-64.8967 88.0666-69.1767Q88.0666-73.4312 91.1301-76.428Q94.1936-79.4247 98.448-79.4247Q102.73-79.4247 105.726-76.4417Q108.721-73.4586 108.721-69.1767Q108.721-64.8692 105.726-61.8862Q102.73-58.9032 98.448-58.9032Z"/>
   <path class="multicolor-4:systemRedColor SFSymbolsPreviewFF3B30" d="M127.607-53.5228Q124.104-53.5228 121.671-55.9024Q119.239-58.2821 119.239-61.7302Q119.239-65.1251 121.685-67.5441Q124.132-69.9631 127.607-69.9631Q130.947-69.9631 133.313-67.5441Q135.679-65.1251 135.679-61.7302Q135.679-58.2547 133.327-55.8887Q130.974-53.5228 127.607-53.5228Z"/>
  </g>
  <g id="Light-L" transform="matrix(1 0 0 1 1067.52 1556)">
   <path class="multicolor-0:systemGrayColor SFSymbolsPreview8E8E93" d="M91.3096 25.7219Q103.932 25.7219 113.457 23.0333Q122.982 20.3446 128.284 15.5241Q133.587 10.7036 133.587 4.38727Q133.587-0.136429 131.978-3.03271Q130.37-5.92889 128.232-8.13804Q126.095-10.347 124.463-12.5715Q122.832-14.7962 122.832-17.9303Q122.832-20.9769 125.509-23.2339Q128.185-25.4912 132.367-27.5017Q136.549-29.5122 141.237-31.8349Q145.925-34.1577 150.09-37.3017Q154.255-40.4457 156.908-45.0035Q159.562-49.5615 159.562-56.0884Q159.562-68.2755 151.596-77.3984Q143.63-86.5214 129.32-91.5825Q115.01-96.6435 95.974-96.6435Q77.0267-96.6435 61.5372-92.1895Q46.0476-87.7357 34.8811-79.498Q23.7147-71.2604 17.6926-59.8089Q11.6705-48.3574 11.6705-34.375Q11.6705-20.9094 17.3709-9.86Q23.0713 1.18947 33.6346 9.13906Q44.1979 17.0887 58.826 21.4053Q73.4542 25.7219 91.3096 25.7219ZM89.602 3.07672Q85.0652 3.07672 81.315 0.831483Q77.565-1.41375 75.3434-5.1573Q73.1217-8.90082 73.1217-13.4376Q73.1217-18.0085 75.3434-21.7586Q77.565-25.5087 81.315-27.7304Q85.0652-29.952 89.602-29.952Q94.1265-29.952 97.8933-27.7304Q101.66-25.5087 103.882-21.7586Q106.103-18.0085 106.103-13.4376Q106.103-6.61498 101.257-1.76915Q96.4116 3.07672 89.602 3.07672Z"/>
   <path class="multicolor-1:systemRedColor SFSymbolsPreviewFF3B30" d="M40.5189-27.9145Q36.7167-27.9145 33.9208-30.7275Q31.1249-33.5404 31.1249-37.3898Q31.1249-41.2181 33.948-43.9777Q36.771-46.7374 40.5189-46.7374Q44.4958-46.7374 47.2047-44.0284Q49.9136-41.3195 49.9136-37.3898Q49.9136-33.5404 47.158-30.7275Q44.4023-27.9145 40.5189-27.9145Z"/>
   <path class="multicolor-2:systemYellowColor SFSymbolsPreviewFFCC00" d="M63.7719-48.9311Q58.3294-48.9311 54.5294-52.6743Q50.7294-56.4174 50.7294-61.8135Q50.7294-67.1284 54.5294-70.8485Q58.3294-74.5685 63.7719-74.5685Q69.0536-74.5685 72.8373-70.8253Q76.621-67.0821 76.621-61.8135Q76.621-56.4174 72.8609-52.6743Q69.1006-48.9311 63.7719-48.9311Z"/>
   <path class="multicolor-3:systemGreenColor SFSymbolsPreview28CD41" d="M97.3411-58.9032Q93.2585-58.9032 90.3286-61.7759Q87.3987-64.6485 87.3987-68.7189Q87.3987-72.8014 90.3286-75.6741Q93.2585-78.5467 97.3411-78.5467Q101.471-78.5467 104.313-75.6973Q107.156-72.8477 107.156-68.7189Q107.156-64.6021 104.313-61.7527Q101.471-58.9032 97.3411-58.9032Z"/>
   <path class="multicolor-4:systemRedColor SFSymbolsPreviewFF3B30" d="M125.756-53.6947Q122.444-53.6947 120.164-55.9406Q117.884-58.1866 117.884-61.4057Q117.884-64.5906 120.187-66.8475Q122.49-69.1044 125.756-69.1044Q128.848-69.1044 131.071-66.8475Q133.293-64.5906 133.293-61.4057Q133.293-58.1403 131.094-55.9174Q128.894-53.6947 125.756-53.6947Z"/>
  </g>
  <g id="Thin-L" transform="matrix(1 0 0 1 772.282 1556)">
   <path class="multicolor-0:systemGrayColor SFSymbolsPreview8E8E93" d="M89.8457 24.258Q101.988 24.258 111.185 21.7459Q120.382 19.2339 125.508 14.7417Q130.633 10.2494 130.633 4.38727Q130.633-0.0604978 129.025-2.80542Q127.417-5.55018 125.254-7.67111Q123.091-9.79187 121.447-12.0669Q119.803-14.342 119.803-17.7789Q119.803-21.2546 122.492-23.6884Q125.182-26.1223 129.364-28.1328Q133.545-30.1432 138.246-32.3523Q142.947-34.5614 147.124-37.5792Q151.301-40.5971 153.955-45.054Q156.609-49.511 156.609-56.0884Q156.609-67.8213 148.857-76.616Q141.106-85.4107 127.124-90.2951Q113.142-95.1795 94.51-95.1795Q75.8405-95.1795 60.6286-90.8392Q45.4165-86.4991 34.4519-78.438Q23.4874-70.377 17.5789-59.1906Q11.6705-48.004 11.6705-34.375Q11.6705-21.2377 17.2572-10.4533Q22.844 0.331101 33.2054 8.07883Q43.5669 15.8266 57.9299 20.0423Q72.2931 24.258 89.8457 24.258ZM87.9107 2.67299Q83.3994 2.67299 79.687 0.452993Q75.9747-1.767 73.791-5.44763Q71.6073-9.12811 71.6073-13.6394Q71.6073-18.16 73.791-21.8722Q75.9747-25.5846 79.687-27.7683Q83.3994-29.952 87.9107-29.952Q92.3597-29.952 96.076-27.7683Q99.7922-25.5846 101.976-21.8722Q104.16-18.16 104.16-13.6394Q104.16-6.86729 99.3895-2.09723Q94.6194 2.67299 87.9107 2.67299Z"/>
   <path class="multicolor-1:systemRedColor SFSymbolsPreviewFF3B30" d="M39.812-28.8989Q36.3884-28.8989 33.8199-31.472Q31.2513-34.045 31.2513-37.5412Q31.2513-41.0917 33.7966-43.5611Q36.3418-46.0304 39.812-46.0304Q43.461-46.0304 45.9174-43.574Q48.3738-41.1176 48.3738-37.5412Q48.3738-34.045 45.8454-31.472Q43.317-28.8989 39.812-28.8989Z"/>
   <path class="multicolor-2:systemYellowColor SFSymbolsPreviewFFCC00" d="M62.3329-48.9311Q56.9913-48.9311 53.2673-52.6111Q49.5432-56.2911 49.5432-61.5611Q49.5432-66.7497 53.2673-70.3941Q56.9913-74.0384 62.3329-74.0384Q67.5137-74.0384 71.2344-70.3584Q74.9552-66.6784 74.9552-61.5611Q74.9552-56.2911 71.2707-52.6111Q67.5862-48.9311 62.3329-48.9311Z"/>
   <path class="multicolor-3:systemGreenColor SFSymbolsPreview28CD41" d="M95.8772-58.9032Q92.0218-58.9032 89.2686-61.6118Q86.5153-64.3202 86.5153-68.1133Q86.5153-71.9685 89.2686-74.6771Q92.0218-77.3856 95.8772-77.3856Q99.805-77.3856 102.446-74.7128Q105.086-72.0398 105.086-68.1133Q105.086-64.2489 102.446-61.5761Q99.805-58.9032 95.8772-58.9032Z"/>
   <path class="multicolor-4:systemRedColor SFSymbolsPreviewFF3B30" d="M123.308-53.9221Q120.248-53.9221 118.17-55.9911Q116.092-58.0603 116.092-60.9765Q116.092-63.8836 118.205-65.9261Q120.319-67.9687 123.308-67.9687Q126.071-67.9687 128.105-65.9261Q130.138-63.8836 130.138-60.9765Q130.138-57.9889 128.14-55.9554Q126.143-53.9221 123.308-53.9221Z"/>
  </g>
  <g id="Ultralight-L" transform="matrix(1 0 0 1 476.328 1556)">
   <path class="multicolor-0:systemGrayColor SFSymbolsPreview8E8E93" d="M89.0959 23.5081Q100.993 23.5081 110.021 21.0866Q119.05 18.665 124.085 14.3409Q129.121 10.0167 129.121 4.38727Q129.121-0.0216061 127.512-2.689Q125.904-5.3562 123.728-7.43195Q121.552-9.50753 119.902-11.8084Q118.251-14.1094 118.251-17.7014Q118.251-21.3969 120.947-23.9211Q123.643-26.4455 127.825-28.456Q132.007-30.4665 136.714-32.6173Q141.421-34.7682 145.605-37.7214Q149.789-40.6746 152.442-45.0799Q155.096-49.4851 155.096-56.0884Q155.096-67.5886 147.455-76.2152Q139.813-84.8419 125.999-89.6358Q112.185-94.4297 93.7601-94.4297Q75.2329-94.4297 60.1632-90.1476Q45.0933-85.8657 34.2321-77.895Q23.371-69.9246 17.5207-58.8739Q11.6705-47.8231 11.6705-34.375Q11.6705-21.4058 17.199-10.7572Q22.7275-0.108552 32.9856 7.53578Q43.2437 15.1802 57.4709 19.3442Q71.6983 23.5081 89.0959 23.5081ZM87.0444 2.4662Q82.5461 2.4662 78.8531 0.259132Q75.1601-1.94794 72.9959-5.59634Q70.8316-9.24453 70.8316-13.7428Q70.8316-18.2375 72.9959-21.9304Q75.1601-25.6235 78.8531-27.7878Q82.5461-29.952 87.0444-29.952Q91.4548-29.952 95.1453-27.7878Q98.8355-25.6235 101-21.9304Q103.164-18.2375 103.164-13.7428Q103.164-6.99652 98.4328-2.26526Q93.7015 2.4662 87.0444 2.4662Z"/>
   <path class="multicolor-1:systemRedColor SFSymbolsPreviewFF3B30" d="M39.4499-29.403Q36.2203-29.403 33.7681-31.8533Q31.316-34.3035 31.316-37.6188Q31.316-41.027 33.7191-43.3476Q36.122-45.6683 39.4499-45.6683Q42.9309-45.6683 45.258-43.3412Q47.5851-41.0142 47.5851-37.6188Q47.5851-34.3035 45.1731-31.8533Q42.7611-29.403 39.4499-29.403Z"/>
   <path class="multicolor-2:systemYellowColor SFSymbolsPreviewFFCC00" d="M61.5959-48.9311Q56.306-48.9311 52.6208-52.5787Q48.9356-56.2263 48.9356-61.4319Q48.9356-66.5558 52.6208-70.1613Q56.306-73.7669 61.5959-73.7669Q66.725-73.7669 70.4134-70.1192Q74.102-66.4716 74.102-61.4319Q74.102-56.2263 70.4562-52.5787Q66.8105-48.9311 61.5959-48.9311Z"/>
   <path class="multicolor-3:systemGreenColor SFSymbolsPreview28CD41" d="M95.1273-58.9032Q91.3884-58.9032 88.7257-61.5277Q86.0628-64.1521 86.0628-67.8031Q86.0628-71.5419 88.7257-74.1665Q91.3884-76.7909 95.1273-76.7909Q98.9517-76.7909 101.489-74.2085Q104.026-71.626 104.026-67.8031Q104.026-64.068 101.489-61.4857Q98.9517-58.9032 95.1273-58.9032Z"/>
   <path class="multicolor-4:systemRedColor SFSymbolsPreviewFF3B30" d="M122.054-54.0385Q119.123-54.0385 117.148-56.0169Q115.174-57.9956 115.174-60.7567Q115.174-63.5214 117.19-65.4542Q119.207-67.387 122.054-67.387Q124.649-67.387 126.586-65.4542Q128.522-63.5214 128.522-60.7567Q128.522-57.9114 126.628-55.9749Q124.733-54.0385 122.054-54.0385Z"/>
  </g>
  <g id="Black-M" transform="matrix(1 0 0 1 2858.82 1126)">
   <path class="multicolor-0:systemGrayColor SFSymbolsPreview8E8E93" d="M78.2251 19.8183Q90.8102 19.8183 100.263 16.9375Q109.716 14.0567 114.964 8.87681Q120.212 3.69692 120.212-3.1665Q120.212-7.2949 119.08-9.92893Q117.949-12.563 116.443-14.4019Q114.938-16.2408 113.806-17.9485Q112.674-19.6561 112.674-21.8748Q112.674-23.9 114.644-25.4504Q116.615-27.0009 119.74-28.5014Q122.866-30.002 126.394-31.9087Q129.921-33.8155 133.045-36.5193Q136.167-39.2232 138.138-43.1572Q140.108-47.0913 140.108-52.6461Q140.108-63.8865 132.827-72.314Q125.546-80.7415 112.414-85.4033Q99.2829-90.065 81.7817-90.065Q65.4448-90.065 52.0724-85.9647Q38.7-81.8645 29.0718-74.399Q19.4437-66.9337 14.2427-56.765Q9.04166-46.5963 9.04166-34.5106Q9.04166-22.2903 13.9935-12.2904Q18.9452-2.2904 28.1061 4.87409Q37.267 12.0386 49.9824 15.9285Q62.6978 19.8183 78.2251 19.8183ZM78.9437-0.629101Q74.4214-0.629101 70.6907-2.86184Q66.9601-5.09458 64.7556-8.85667Q62.5513-12.6189 62.5513-17.1411Q62.5513-21.6689 64.7556-25.4281Q66.9601-29.1874 70.6907-31.4203Q74.4214-33.6531 78.9437-33.6531Q83.5289-33.6531 87.2908-31.4203Q91.0528-29.1874 93.2572-25.4281Q95.4615-21.6689 95.4615-17.1411Q95.4615-9.78395 90.9126-5.2065Q86.3637-0.629101 78.9437-0.629101Z"/>
   <path class="multicolor-1:systemRedColor SFSymbolsPreviewFF3B30" d="M34.0696-27.1687Q30.4622-27.1687 27.9103-29.7802Q25.3585-32.3919 25.3585-35.9421Q25.3585-39.5381 27.9187-42.0672Q30.4789-44.5964 34.0696-44.5964Q37.6817-44.5964 40.2313-42.0755Q42.7808-39.5546 42.7808-35.9421Q42.7808-32.3919 40.2316-29.7802Q37.6823-27.1687 34.0696-27.1687Z"/>
   <path class="multicolor-2:systemYellowColor SFSymbolsPreviewFFCC00" d="M55.5411-46.3016Q51.1786-46.3016 48.0963-49.3785Q45.014-52.4555 45.014-56.8183Q45.014-61.2329 48.0963-64.2245Q51.1786-67.2159 55.5411-67.2159Q59.8932-67.2159 63.0013-64.2246Q66.1095-61.2332 66.1095-56.8183Q66.1095-52.4555 63.0012-49.3785Q59.8929-46.3016 55.5411-46.3016Z"/>
   <path class="multicolor-3:systemGreenColor SFSymbolsPreview28CD41" d="M84.6108-55.2264Q81.0051-55.2264 78.4226-57.7464Q75.8403-60.2663 75.8403-63.8779Q75.8403-67.5408 78.4226-70.0607Q81.0051-72.5808 84.6108-72.5808Q88.1592-72.5808 90.7109-70.0606Q93.2623-67.5405 93.2623-63.8779Q93.2623-60.2666 90.7109-57.7465Q88.1592-55.2264 84.6108-55.2264Z"/>
   <path class="multicolor-4:systemRedColor SFSymbolsPreviewFF3B30" d="M111.132-51.3193Q108.201-51.3193 106.085-53.3721Q103.97-55.4249 103.97-58.4138Q103.97-61.34 106.085-63.4556Q108.2-65.5711 111.132-65.5711Q114.116-65.5711 116.197-63.2843Q118.279-60.9974 118.279-58.4138Q118.279-55.7678 116.197-53.5435Q114.115-51.3193 111.132-51.3193Z"/>
  </g>
  <g id="Heavy-M" transform="matrix(1 0 0 1 2563.7 1126)">
   <path class="multicolor-0:systemGrayColor SFSymbolsPreview8E8E93" d="M76.8102 18.3226Q88.8482 18.3226 97.8904 15.5877Q106.933 12.8527 111.954 7.93517Q116.976 3.0176 116.976-3.4899Q116.976-7.48933 115.817-10.0676Q114.658-12.6459 113.123-14.4759Q111.588-16.3059 110.428-18.0051Q109.268-19.7044 109.268-21.8999Q109.268-23.9012 111.26-25.456Q113.252-27.0109 116.404-28.5249Q119.557-30.0389 123.106-31.9476Q126.655-33.8564 129.8-36.5272Q132.944-39.1981 134.935-43.0613Q136.925-46.9245 136.925-52.3497Q136.925-63.2745 129.855-71.4599Q122.784-79.6453 110.056-84.1747Q97.3285-88.704 80.3803-88.704Q64.3679-88.704 51.2527-84.7297Q38.1375-80.7555 28.6914-73.5034Q19.2455-66.2514 14.1436-56.3251Q9.04166-46.3988 9.04166-34.524Q9.04166-22.647 13.8944-12.9232Q18.747-3.1993 27.7258 3.7763Q36.7045 10.7519 49.1572 14.5373Q61.61 18.3226 76.8102 18.3226ZM77.1015-1.69408Q72.8109-1.69408 69.2659-3.81647Q65.721-5.93885 63.6215-9.51266Q61.5221-13.0866 61.5221-17.3771Q61.5221-21.6842 63.6215-25.251Q65.721-28.8178 69.2659-30.939Q72.8109-33.0602 77.1015-33.0602Q81.45-33.0602 85.0249-30.939Q88.5998-28.8178 90.6994-25.251Q92.7988-21.6842 92.7988-17.3771Q92.7988-10.4967 88.4192-6.09538Q84.0397-1.69408 77.1015-1.69408Z"/>
   <path class="multicolor-1:systemRedColor SFSymbolsPreviewFF3B30" d="M33.6073-27.4974Q30.0651-27.4974 27.5497-30.0645Q25.0344-32.6317 25.0344-36.1326Q25.0344-39.6465 27.5732-42.1531Q30.1121-44.6595 33.6073-44.6595Q37.1727-44.6595 39.6764-42.1777Q42.1801-39.6958 42.1801-36.1326Q42.1801-32.6317 39.6742-30.0645Q37.1681-27.4974 33.6073-27.4974Z"/>
   <path class="multicolor-2:systemYellowColor SFSymbolsPreviewFFCC00" d="M54.4387-46.1938Q50.0864-46.1938 47.0185-49.2441Q43.9506-52.2945 43.9506-56.6445Q43.9506-61.0194 47.0185-64.0032Q50.0864-66.987 54.4387-66.987Q58.7536-66.987 61.8351-64.0021Q64.9166-61.0171 64.9166-56.6445Q64.9166-52.2945 61.8363-49.2441Q58.7559-46.1938 54.4387-46.1938Z"/>
   <path class="multicolor-3:systemGreenColor SFSymbolsPreview28CD41" d="M82.7917-54.8356Q79.2359-54.8356 76.6848-57.3255Q74.1338-59.8154 74.1338-63.3853Q74.1338-66.9848 76.6848-69.4747Q79.2359-71.9646 82.7917-71.9646Q86.3062-71.9646 88.8238-69.4758Q91.3414-66.9871 91.3414-63.3853Q91.3414-59.8131 88.8238-57.3244Q86.3062-54.8356 82.7917-54.8356Z"/>
   <path class="multicolor-4:systemRedColor SFSymbolsPreviewFF3B30" d="M108.485-50.8438Q105.58-50.8438 103.498-52.8652Q101.417-54.8866 101.417-57.8313Q101.417-60.7159 103.499-62.7963Q105.582-64.8766 108.485-64.8766Q111.409-64.8766 113.451-62.6654Q115.493-60.4542 115.493-57.8313Q115.493-55.1461 113.452-52.9949Q111.411-50.8438 108.485-50.8438Z"/>
  </g>
  <g id="Bold-M" transform="matrix(1 0 0 1 2268.77 1126)">
   <path class="multicolor-0:systemGrayColor SFSymbolsPreview8E8E93" d="M75.2274 16.6493Q86.6533 16.6493 95.2363 14.0776Q103.819 11.5059 108.587 6.88181Q113.355 2.25768 113.355-3.85167Q113.355-7.70682 112.166-10.2227Q110.977-12.7386 109.409-14.5587Q107.841-16.3787 106.65-18.0685Q105.458-19.7585 105.458-21.928Q105.458-23.9026 107.474-25.4623Q109.49-27.0221 112.672-28.5512Q115.855-30.0803 119.429-31.9912Q123.002-33.9021 126.171-36.5361Q129.339-39.17 131.352-42.9539Q133.365-46.7379 133.365-52.018Q133.365-62.59 126.53-70.5045Q119.694-78.4191 107.418-82.8003Q95.1422-87.1815 78.8126-87.1815Q63.1633-87.1815 50.3358-83.3482Q37.5083-79.515 28.266-72.5015Q19.0238-65.488 14.0327-55.8329Q9.04166-46.1779 9.04166-34.5391Q9.04166-23.0459 13.7835-13.631Q18.5253-4.21603 27.3003 2.54827Q36.0753 9.3126 48.2342 12.981Q60.3932 16.6493 75.2274 16.6493ZM75.0408-2.88542Q71.0093-2.88542 67.672-4.88435Q64.3349-6.88329 62.3528-10.2465Q60.3707-13.6097 60.3707-17.6412Q60.3707-21.7014 62.3528-25.0529Q64.3349-28.4044 67.672-30.4007Q71.0093-32.397 75.0408-32.397Q79.1244-32.397 82.4902-30.4007Q85.8559-28.4044 87.838-25.0529Q89.8201-21.7014 89.8201-17.6412Q89.8201-11.2941 85.63-7.08972Q81.4399-2.88542 75.0408-2.88542Z"/>
   <path class="multicolor-1:systemRedColor SFSymbolsPreviewFF3B30" d="M33.09-27.8652Q29.6209-27.8652 27.1464-30.3825Q24.6719-32.8999 24.6719-36.3457Q24.6719-39.7679 27.1867-42.249Q29.7017-44.7302 33.09-44.7302Q36.6032-44.7302 39.0558-42.292Q41.5082-39.8538 41.5082-36.3457Q41.5082-32.8999 39.0506-30.3825Q36.593-27.8652 33.09-27.8652Z"/>
   <path class="multicolor-2:systemYellowColor SFSymbolsPreviewFFCC00" d="M53.2054-46.0732Q48.8646-46.0732 45.8128-49.0938Q42.7611-52.1144 42.7611-56.4501Q42.7611-60.7805 45.8128-63.7558Q48.8646-66.731 53.2054-66.731Q57.4787-66.731 60.5305-63.7532Q63.5823-60.7754 63.5823-56.4501Q63.5823-52.1144 60.5331-49.0938Q57.4839-46.0732 53.2054-46.0732Z"/>
   <path class="multicolor-3:systemGreenColor SFSymbolsPreview28CD41" d="M80.7567-54.3985Q77.2568-54.3985 74.7408-56.8547Q72.2249-59.3109 72.2249-62.8344Q72.2249-66.3629 74.7408-68.8191Q77.2568-71.2753 80.7567-71.2753Q84.2332-71.2753 86.7129-68.8216Q89.1925-66.368 89.1925-62.8344Q89.1925-59.3058 86.7129-56.8522Q84.2332-54.3985 80.7567-54.3985Z"/>
   <path class="multicolor-4:systemRedColor SFSymbolsPreviewFF3B30" d="M105.525-50.3118Q102.648-50.3118 100.604-52.2981Q98.5606-54.2844 98.5606-57.1798Q98.5606-60.0178 100.607-62.0588Q102.653-64.0998 105.525-64.0998Q108.381-64.0998 110.379-61.9732Q112.377-59.8465 112.377-57.1798Q112.377-54.4506 110.382-52.3812Q108.386-50.3118 105.525-50.3118Z"/>
  </g>
  <g id="Semibold-M" transform="matrix(1 0 0 1 1973.29 1126)">
   <path class="multicolor-0:systemGrayColor SFSymbolsPreview8E8E93" d="M74.1362 15.4958Q85.1402 15.4958 93.4066 13.0366Q101.673 10.5775 106.266 6.15562Q110.859 1.7338 110.859-4.10107Q110.859-7.85676 109.649-10.3296Q108.439-12.8025 106.849-14.6157Q105.258-16.4288 104.045-18.1122Q102.831-19.7957 102.831-21.9474Q102.831-23.9035 104.864-25.4666Q106.896-27.0298 110.1-28.5693Q113.303-30.1088 116.893-32.0212Q120.483-33.9337 123.668-36.5422Q126.853-39.1507 128.882-42.8799Q130.911-46.6092 130.911-51.7894Q130.911-62.118 124.237-69.8459Q117.564-77.5738 105.599-81.8529Q93.635-86.1319 77.7318-86.1319Q62.3328-86.1319 49.7037-82.3958Q37.0745-78.6598 27.9727-71.8108Q18.871-64.9618 13.9563-55.4937Q9.04166-46.0256 9.04166-34.5495Q9.04166-23.321 13.7071-14.119Q18.3725-4.91696 27.007 1.70167Q35.6415 8.32034 47.5979 11.9081Q59.5543 15.4958 74.1362 15.4958ZM73.6201-3.70672Q69.7672-3.70672 66.5732-5.62055Q63.3793-7.53438 61.4781-10.7524Q59.5769-13.9704 59.5769-17.8232Q59.5769-21.7132 61.4781-24.9163Q63.3793-28.1193 66.5732-30.0296Q69.7672-31.9398 73.6201-31.9398Q77.5212-31.9398 80.7427-30.0296Q83.9642-28.1193 85.8654-24.9163Q87.7666-21.7132 87.7666-17.8232Q87.7666-11.8438 83.7071-7.77522Q79.6476-3.70672 73.6201-3.70672Z"/>
   <path class="multicolor-1:systemRedColor SFSymbolsPreviewFF3B30" d="M32.7335-28.1187Q29.3147-28.1187 26.8683-30.6018Q24.422-33.0848 24.422-36.4926Q24.422-39.8515 26.9203-42.3152Q29.4187-44.7789 32.7335-44.7789Q36.2107-44.7789 38.6279-42.3708Q41.045-39.9627 41.045-36.4926Q41.045-33.0848 38.6208-30.6018Q36.1965-28.1187 32.7335-28.1187Z"/>
   <path class="multicolor-2:systemYellowColor SFSymbolsPreviewFFCC00" d="M52.3552-45.9901Q48.0222-45.9901 44.9816-48.9901Q41.941-51.9902 41.941-56.3161Q41.941-60.6158 44.9816-63.5852Q48.0222-66.5545 52.3552-66.5545Q56.5998-66.5545 59.6311-63.5817Q62.6624-60.6088 62.6624-56.3161Q62.6624-51.9902 59.6347-48.9901Q56.607-45.9901 52.3552-45.9901Z"/>
   <path class="multicolor-3:systemGreenColor SFSymbolsPreview28CD41" d="M79.3538-54.0971Q75.8924-54.0971 73.4006-56.5301Q70.9089-58.9631 70.9089-62.4545Q70.9089-65.9341 73.4006-68.3671Q75.8924-70.8001 79.3538-70.8001Q82.8042-70.8001 85.2576-68.3706Q87.7111-65.9411 87.7111-62.4545Q87.7111-58.9561 85.2576-56.5266Q82.8042-54.0971 79.3538-54.0971Z"/>
   <path class="multicolor-4:systemRedColor SFSymbolsPreviewFF3B30" d="M103.484-49.945Q100.626-49.945 98.6091-51.9071Q96.5917-53.8693 96.5917-56.7306Q96.5917-59.5365 98.6126-61.5504Q100.633-63.5642 103.484-63.5642Q106.294-63.5642 108.261-61.4959Q110.229-59.4276 110.229-56.7306Q110.229-53.9712 108.265-51.9581Q106.301-49.945 103.484-49.945Z"/>
  </g>
  <g id="Medium-M" transform="matrix(1 0 0 1 1677.51 1126)">
   <path class="multicolor-0:systemGrayColor SFSymbolsPreview8E8E93" d="M73.3089 14.6212Q83.9929 14.6212 92.0192 12.2473Q100.046 9.87344 104.506 5.605Q108.966 1.33657 108.966-4.29018Q108.966-7.97044 107.741-10.4107Q106.515-12.851 104.907-14.659Q103.299-16.4669 102.07-18.1454Q100.84-19.824 100.84-21.962Q100.84-23.9042 102.885-25.4699Q104.93-27.0357 108.149-28.583Q111.368-30.1304 114.971-32.044Q118.573-33.9576 121.771-36.5468Q124.968-39.1361 127.009-42.8238Q129.05-46.5117 129.05-51.616Q129.05-61.7602 122.499-69.3465Q115.949-76.9328 104.221-81.1344Q92.4922-85.336 76.9123-85.336Q61.7031-85.336 49.2244-81.6737Q36.7456-78.0114 27.7503-71.2871Q18.7551-64.5628 13.8983-55.2364Q9.04166-45.9101 9.04166-34.5574Q9.04166-23.5295 13.6491-14.489Q18.2566-5.44843 26.7846 1.05975Q35.3126 7.56797 47.1154 11.0946Q58.9182 14.6212 73.3089 14.6212ZM72.5429-4.32946Q68.8255-4.32946 65.7401-6.17876Q62.6548-8.02807 60.8149-11.1359Q58.9751-14.2439 58.9751-17.9613Q58.9751-21.7222 60.8149-24.8127Q62.6548-27.9032 65.7401-29.7482Q68.8255-31.5931 72.5429-31.5931Q76.3055-31.5931 79.4178-29.7482Q82.5299-27.9032 84.3697-24.8127Q86.2095-21.7222 86.2095-17.9613Q86.2095-12.2606 82.2492-8.29499Q78.2887-4.32946 72.5429-4.32946Z"/>
   <path class="multicolor-1:systemRedColor SFSymbolsPreviewFF3B30" d="M32.4631-28.3109Q29.0825-28.3109 26.6575-30.768Q24.2325-33.225 24.2325-36.604Q24.2325-39.9149 26.7183-42.3654Q29.2042-44.8158 32.4631-44.8158Q35.913-44.8158 38.3034-42.4305Q40.6938-40.0453 40.6938-36.604Q40.6938-33.225 38.2948-30.768Q35.8958-28.3109 32.4631-28.3109Z"/>
   <path class="multicolor-2:systemYellowColor SFSymbolsPreviewFFCC00" d="M51.7105-45.927Q47.3836-45.927 44.3513-48.9116Q41.3192-51.896 41.3192-56.2145Q41.3192-60.4909 44.3513-63.4558Q47.3836-66.4206 51.7105-66.4206Q55.9334-66.4206 58.9492-63.4516Q61.9649-60.4824 61.9649-56.2145Q61.9649-51.896 58.9535-48.9116Q55.9421-45.927 51.7105-45.927Z"/>
   <path class="multicolor-3:systemGreenColor SFSymbolsPreview28CD41" d="M78.29-53.8686Q74.8579-53.8686 72.3844-56.284Q69.9111-58.6994 69.9111-62.1665Q69.9111-65.609 72.3844-68.0244Q74.8579-70.4398 78.29-70.4398Q81.7206-70.4398 84.1542-68.0286Q86.5879-65.6175 86.5879-62.1665Q86.5879-58.6909 84.1542-56.2798Q81.7206-53.8686 78.29-53.8686Z"/>
   <path class="multicolor-4:systemRedColor SFSymbolsPreviewFF3B30" d="M101.936-49.667Q99.0939-49.667 97.0963-51.6107Q95.0987-53.5545 95.0987-56.39Q95.0987-59.1716 97.1006-61.1649Q99.1024-63.1581 101.936-63.1581Q104.711-63.1581 106.656-61.1341Q108.6-59.1099 108.6-56.39Q108.6-53.6076 106.66-51.6373Q104.719-49.667 101.936-49.667Z"/>
  </g>
  <g id="Regular-M" transform="matrix(1 0 0 1 1382.01 1126)">
   <path class="multicolor-0:systemGrayColor SFSymbolsPreview8E8E93" d="M72.2297 13.4803Q82.4965 13.4803 90.2096 11.2178Q97.9228 8.95516 102.21 4.8868Q106.498 0.818441 106.498-4.53684Q106.498-8.11873 105.252-10.5165Q104.006-12.9142 102.375-14.7154Q100.745-16.5165 99.4933-18.1886Q98.242-19.8608 98.242-21.9812Q98.242-23.9051 100.303-25.4742Q102.365-27.0434 105.604-28.601Q108.844-30.1586 112.463-32.0737Q116.082-33.9888 119.296-36.5529Q122.51-39.1169 124.566-42.7507Q126.622-46.3845 126.622-51.3899Q126.622-61.2935 120.232-68.6951Q113.842-76.0968 102.422-80.1974Q91.0016-84.298 75.8434-84.298Q60.8818-84.298 48.5992-80.7317Q36.3166-77.1656 27.4602-70.604Q18.6039-64.0424 13.8227-54.9009Q9.04166-45.7595 9.04166-34.5676Q9.04166-23.8015 13.5735-14.9716Q18.1054-6.14165 26.4945 0.222452Q34.8835 6.58661 46.486 10.0335Q58.0885 13.4803 72.2297 13.4803ZM71.1378-5.14173Q67.5971-5.14173 64.6533-6.90687Q61.7097-8.672 59.9499-11.6363Q58.1901-14.6006 58.1901-18.1413Q58.1901-21.7339 59.9499-24.6776Q61.7097-27.6213 64.6533-29.3811Q67.5971-31.1409 71.1378-31.1409Q74.7199-31.1409 77.6895-29.3811Q80.659-27.6213 82.4188-24.6776Q84.1786-21.7339 84.1786-18.1413Q84.1786-12.8042 80.3474-8.97295Q76.5161-5.14173 71.1378-5.14173Z"/>
   <path class="multicolor-1:systemRedColor SFSymbolsPreviewFF3B30" d="M32.1104-28.5617Q28.7796-28.5617 26.3825-30.9848Q23.9853-33.4079 23.9853-36.7493Q23.9853-39.9977 26.4548-42.4309Q28.9244-44.8639 32.1104-44.8639Q35.5248-44.8639 37.8802-42.5085Q40.2357-40.153 40.2357-36.7493Q40.2357-33.4079 37.8697-30.9848Q35.5037-28.5617 32.1104-28.5617Z"/>
   <path class="multicolor-2:systemYellowColor SFSymbolsPreviewFFCC00" d="M50.8697-45.8448Q46.5505-45.8448 43.5293-48.8091Q40.5082-51.7732 40.5082-56.0819Q40.5082-60.3281 43.5293-63.2871Q46.5505-66.2461 50.8697-66.2461Q55.0642-66.2461 58.0597-63.2819Q61.0551-60.3176 61.0551-56.0819Q61.0551-51.7732 58.065-48.8091Q55.0748-45.8448 50.8697-45.8448Z"/>
   <path class="multicolor-3:systemGreenColor SFSymbolsPreview28CD41" d="M76.9025-53.5706Q73.5085-53.5706 71.059-55.963Q68.6095-58.3554 68.6095-61.7909Q68.6095-65.1849 71.059-67.5774Q73.5085-69.9698 76.9025-69.9698Q80.3072-69.9698 82.7149-67.5826Q85.1227-65.1954 85.1227-61.7909Q85.1227-58.345 82.7149-55.9578Q80.3072-53.5706 76.9025-53.5706Z"/>
   <path class="multicolor-4:systemRedColor SFSymbolsPreviewFF3B30" d="M99.9177-49.3042Q97.0948-49.3042 95.1232-51.2241Q93.1515-53.1439 93.1515-55.9457Q93.1515-58.6956 95.1284-60.6621Q97.1053-62.6285 99.9177-62.6285Q102.646-62.6285 104.561-60.6621Q106.476-58.6956 106.476-55.9457Q106.476-53.1334 104.566-51.2188Q102.657-49.3042 99.9177-49.3042Z"/>
  </g>
  <g id="Light-M" transform="matrix(1 0 0 1 1086.3 1126)">
   <path class="multicolor-0:systemGrayColor SFSymbolsPreview8E8E93" d="M71.2373 12.488Q81.1789 12.488 88.6695 10.3451Q96.1603 8.20224 100.328 4.3564Q104.496 0.510545 104.496-4.53684Q104.496-8.06726 103.25-10.3624Q102.004-12.6575 100.356-14.3989Q98.7084-16.1402 97.4485-17.8465Q96.1888-19.553 96.1888-21.8785Q96.1888-24.0934 98.2586-25.7822Q100.328-27.4711 103.568-29.0288Q106.808-30.5864 110.436-32.4244Q114.063-34.2625 117.286-36.741Q120.508-39.2195 122.564-42.7849Q124.62-46.3503 124.62-51.3899Q124.62-60.9856 118.376-68.1647Q112.131-75.3439 100.933-79.3247Q89.7355-83.3056 74.851-83.3056Q60.0777-83.3056 47.9833-79.8164Q35.8888-76.3273 27.1692-69.8854Q18.4498-63.4435 13.7457-54.4818Q9.04166-45.52 9.04166-34.5676Q9.04166-24.024 13.4965-15.3738Q17.9513-6.72352 26.2036-0.496259Q34.4558 5.73105 45.8786 9.1095Q57.3014 12.488 71.2373 12.488ZM69.9914-5.41541Q66.4679-5.41541 63.5497-7.16344Q60.6316-8.91146 58.8976-11.8331Q57.1635-14.7547 57.1635-18.2781Q57.1635-21.8365 58.8976-24.7547Q60.6316-27.6728 63.5497-29.4069Q66.4679-31.1409 69.9914-31.1409Q73.5223-31.1409 76.4576-29.4069Q79.3929-27.6728 81.127-24.7547Q82.8611-21.8365 82.8611-18.2781Q82.8611-12.9753 79.0812-9.19534Q75.3012-5.41541 69.9914-5.41541Z"/>
   <path class="multicolor-1:systemRedColor SFSymbolsPreviewFF3B30" d="M31.6312-29.2289Q28.5571-29.2289 26.3141-31.4895Q24.071-33.75 24.071-36.852Q24.071-39.912 26.3522-42.1484Q28.6334-44.3847 31.6312-44.3847Q34.8233-44.3847 37.0076-42.2004Q39.1918-40.0162 39.1918-36.852Q39.1918-33.75 36.9799-31.4895Q34.768-29.2289 31.6312-29.2289Z"/>
   <path class="multicolor-2:systemYellowColor SFSymbolsPreviewFFCC00" d="M49.8942-45.8448Q45.6435-45.8448 42.6737-48.7662Q39.7041-51.6876 39.7041-55.9108Q39.7041-60.0714 42.6737-62.9791Q45.6435-65.8867 49.8942-65.8867Q54.0204-65.8867 56.9731-62.9654Q59.9258-60.0439 59.9258-55.9108Q59.9258-51.6876 56.9871-48.7662Q54.0482-45.8448 49.8942-45.8448Z"/>
   <path class="multicolor-3:systemGreenColor SFSymbolsPreview28CD41" d="M75.9102-53.5706Q72.6702-53.5706 70.3405-55.8518Q68.0107-58.1329 68.0107-61.3804Q68.0107-64.6203 70.3405-66.9015Q72.6702-69.1826 75.9102-69.1826Q79.178-69.1826 81.4487-66.9152Q83.7195-64.6477 83.7195-61.3804Q83.7195-58.1055 81.4487-55.8381Q79.178-53.5706 75.9102-53.5706Z"/>
   <path class="multicolor-4:systemRedColor SFSymbolsPreviewFF3B30" d="M98.258-49.4584Q95.6063-49.4584 93.7714-51.2583Q91.9366-53.0583 91.9366-55.6548Q91.9366-58.2164 93.7851-60.0375Q95.6337-61.8586 98.258-61.8586Q100.764-61.8586 102.551-60.0375Q104.337-58.2164 104.337-55.6548Q104.337-53.0308 102.564-51.2446Q100.792-49.4584 98.258-49.4584Z"/>
  </g>
  <g id="Thin-M" transform="matrix(1 0 0 1 790.915 1126)">
   <path class="multicolor-0:systemGrayColor SFSymbolsPreview8E8E93" d="M69.9248 11.1754Q79.4363 11.1754 86.6327 9.19093Q93.8291 7.20644 97.8385 3.65489Q101.848 0.103327 101.848-4.53684Q101.848-7.99918 100.602-10.1586Q99.3557-12.318 97.6854-13.9803Q96.0153-15.6425 94.7442-17.394Q93.4733-19.1457 93.4733-21.7428Q93.4733-24.3424 95.5542-26.1896Q97.6352-28.0369 100.875-29.5946Q104.115-31.1522 107.754-32.8883Q111.393-34.6244 114.627-36.9898Q117.86-39.3552 119.916-42.8301Q121.972-46.305 121.972-51.3899Q121.972-60.5784 115.92-67.4632Q109.868-74.3481 98.9645-78.1706Q88.061-81.993 73.5385-81.993Q59.0142-81.993 47.1686-78.6057Q35.323-75.2186 26.7844-68.935Q18.246-62.6515 13.6438-53.9274Q9.04166-45.2032 9.04166-34.5676Q9.04166-24.3183 13.3946-15.9057Q17.7475-7.4931 25.8188-1.44681Q33.89 4.59951 45.0751 7.88747Q56.2604 11.1754 69.9248 11.1754ZM68.475-5.77737Q64.9744-5.77737 62.09-7.50277Q59.2058-9.22817 57.5058-12.0934Q55.8057-14.9585 55.8057-18.4591Q55.8057-21.9723 57.5058-24.8565Q59.2058-27.7409 62.09-29.4409Q64.9744-31.1409 68.475-31.1409Q71.9383-31.1409 74.8284-29.4409Q77.7184-27.7409 79.4185-24.8565Q81.1186-21.9723 81.1186-18.4591Q81.1186-13.2015 77.4065-9.48947Q73.6945-5.77737 68.475-5.77737Z"/>
   <path class="multicolor-1:systemRedColor SFSymbolsPreviewFF3B30" d="M30.9974-30.1115Q28.2628-30.1115 26.2236-32.157Q24.1843-34.2025 24.1843-36.9877Q24.1843-39.7987 26.2165-41.7748Q28.2487-43.7509 30.9974-43.7509Q33.8955-43.7509 35.8534-41.793Q37.8113-39.8352 37.8113-36.9877Q37.8113-34.2025 35.8031-32.157Q33.795-30.1115 30.9974-30.1115Z"/>
   <path class="multicolor-2:systemYellowColor SFSymbolsPreviewFFCC00" d="M48.6041-45.8448Q44.4439-45.8448 41.5422-48.7096Q38.6405-51.5743 38.6405-55.6846Q38.6405-59.7318 41.5422-62.5717Q44.4439-65.4115 48.6041-65.4115Q52.6398-65.4115 55.536-62.5467Q58.4323-59.682 58.4323-55.6846Q58.4323-51.5743 55.5614-48.7096Q52.6904-45.8448 48.6041-45.8448Z"/>
   <path class="multicolor-3:systemGreenColor SFSymbolsPreview28CD41" d="M74.5977-53.5706Q71.5615-53.5706 69.3901-55.7047Q67.2187-57.8386 67.2187-60.8375Q67.2187-63.8736 69.3901-66.0076Q71.5615-68.1416 74.5977-68.1416Q77.6845-68.1416 79.7741-66.0326Q81.8637-63.9234 81.8637-60.8375Q81.8637-57.7888 79.7741-55.6797Q77.6845-53.5706 74.5977-53.5706Z"/>
   <path class="multicolor-4:systemRedColor SFSymbolsPreviewFF3B30" d="M96.0631-49.6622Q93.6375-49.6622 91.9836-51.3035Q90.3298-52.945 90.3298-55.27Q90.3298-57.5825 92.0085-59.2115Q93.6873-60.8404 96.0631-60.8404Q98.2751-60.8404 99.8915-59.2115Q101.508-57.5825 101.508-55.27Q101.508-52.8951 99.9164-51.2786Q98.3249-49.6622 96.0631-49.6622Z"/>
  </g>
  <g id="Ultralight-M" transform="matrix(1 0 0 1 494.882 1126)">
   <path class="multicolor-0:systemGrayColor SFSymbolsPreview8E8E93" d="M69.2526 10.5032Q78.5438 10.5032 85.5894 8.59978Q92.6351 6.6964 96.5634 3.29558Q100.492-0.105248 100.492-4.53684Q100.492-7.96432 99.2455-10.0543Q97.9995-12.144 96.3176-13.7659Q94.6359-15.3875 93.3591-17.1623Q92.0824-18.9372 92.0824-21.6732Q92.0824-24.47 94.1691-26.3983Q96.2558-28.3267 99.4957-29.8843Q102.736-31.442 106.38-33.1259Q110.025-34.8098 113.265-37.1173Q116.504-39.4247 118.56-42.8533Q120.616-46.2818 120.616-51.3899Q120.616-60.3698 114.662-67.1039Q108.709-73.8381 97.9561-77.5794Q87.2033-81.3207 72.8662-81.3207Q58.4695-81.3207 46.7514-77.9857Q35.0332-74.6507 26.5874-68.4482Q18.1416-62.2459 13.5916-53.6435Q9.04166-45.041 9.04166-34.5676Q9.04166-24.4691 13.3424-16.1782Q17.6431-7.88727 25.6217-1.93368Q33.6003 4.01994 44.6636 7.26156Q55.7272 10.5032 69.2526 10.5032ZM67.6984-5.96277Q64.2094-5.96277 61.3424-7.67658Q58.4755-9.39039 56.7929-12.2267Q55.1103-15.0628 55.1103-18.5518Q55.1103-22.0418 56.7929-24.9087Q58.4755-27.7757 61.3424-29.4583Q64.2094-31.1409 67.6984-31.1409Q71.1269-31.1409 73.9939-29.4583Q76.8607-27.7757 78.5435-24.9087Q80.2261-22.0418 80.2261-18.5518Q80.2261-13.3173 76.5487-9.64013Q72.8715-5.96277 67.6984-5.96277Z"/>
   <path class="multicolor-1:systemRedColor SFSymbolsPreviewFF3B30" d="M30.6727-30.5635Q28.1121-30.5635 26.1772-32.4988Q24.2423-34.4342 24.2423-37.0573Q24.2423-39.7407 26.147-41.5835Q28.0516-43.4263 30.6727-43.4263Q33.4203-43.4263 35.2622-41.5844Q37.1041-39.7424 37.1041-37.0573Q37.1041-34.4342 35.2004-32.4988Q33.2966-30.5635 30.6727-30.5635Z"/>
   <path class="multicolor-2:systemYellowColor SFSymbolsPreviewFFCC00" d="M47.9433-45.8448Q43.8294-45.8448 40.9626-48.6805Q38.0958-51.5163 38.0958-55.5687Q38.0958-59.5579 40.9626-62.363Q43.8294-65.1681 47.9433-65.1681Q51.9327-65.1681 54.8-62.3323Q57.6674-59.4966 57.6674-55.5687Q57.6674-51.5163 54.8312-48.6805Q51.995-45.8448 47.9433-45.8448Z"/>
   <path class="multicolor-3:systemGreenColor SFSymbolsPreview28CD41" d="M73.9254-53.5706Q70.9936-53.5706 68.9034-55.6293Q66.813-57.6879 66.813-60.5594Q66.813-63.4911 68.9034-65.5498Q70.9936-67.6084 73.9254-67.6084Q76.9195-67.6084 78.9163-65.5805Q80.9131-63.5524 80.9131-60.5594Q80.9131-57.6266 78.9163-55.5986Q76.9195-53.5706 73.9254-53.5706Z"/>
   <path class="multicolor-4:systemRedColor SFSymbolsPreviewFF3B30" d="M94.9388-49.7666Q92.6291-49.7666 91.0679-51.3267Q89.5068-52.887 89.5068-55.0729Q89.5068-57.2578 91.0985-58.7884Q92.6904-60.3189 94.9388-60.3189Q97.0001-60.3189 98.5295-58.7884Q100.059-57.2578 100.059-55.0729Q100.059-52.8256 98.5602-51.296Q97.0614-49.7666 94.9388-49.7666Z"/>
  </g>
  <g id="Black-S" transform="matrix(1 0 0 1 2874.53 696)">
   <path class="multicolor-0:systemGrayColor SFSymbolsPreview8E8E93" d="M61.6758 8.30664Q71.6855 8.30664 79.2051 6.01172Q86.7246 3.7168 90.8994-0.40918Q95.0742-4.53516 95.0742-10.0039Q95.0742-13.2754 94.1953-15.3506Q93.3164-17.4258 92.1445-18.8662Q90.9727-20.3066 90.0938-21.6494Q89.2148-22.9922 89.2148-24.75Q89.2148-26.3613 90.7529-27.582Q92.291-28.8027 94.7324-29.9746Q97.1738-31.1465 99.9326-32.6357Q102.691-34.125 105.133-36.249Q107.574-38.373 109.112-41.4736Q110.65-44.5742 110.65-48.9688Q110.65-57.8555 104.889-64.5205Q99.127-71.1855 88.7266-74.8721Q78.3262-78.5586 64.459-78.5586Q51.5684-78.5586 41.0215-75.3115Q30.4746-72.0645 22.8818-66.1562Q15.2891-60.248 11.1875-52.2158Q7.08594-44.1836 7.08594-34.6621Q7.08594-24.9941 10.9922-17.084Q14.8984-9.17383 22.125-3.50977Q29.3516 2.1543 39.3857 5.23047Q49.4199 8.30664 61.6758 8.30664ZM62.3594-7.80664Q58.7461-7.80664 55.7676-9.58887Q52.7891-11.3711 51.0312-14.374Q49.2734-17.377 49.2734-20.9902Q49.2734-24.6035 51.0312-27.6064Q52.7891-30.6094 55.7676-32.3916Q58.7461-34.1738 62.3594-34.1738Q66.0215-34.1738 69.0244-32.3916Q72.0273-30.6094 73.7852-27.6064Q75.543-24.6035 75.543-20.9902Q75.543-15.082 71.9297-11.4443Q68.3164-7.80664 62.3594-7.80664Z"/>
   <path class="multicolor-1:systemRedColor SFSymbolsPreviewFF3B30" d="M26.8125-28.8516Q23.9805-28.8516 21.9785-30.9023Q19.9766-32.9531 19.9766-35.7363Q19.9766-38.5684 21.9785-40.5459Q23.9805-42.5234 26.8125-42.5234Q29.6445-42.5234 31.6465-40.5459Q33.6484-38.5684 33.6484-35.7363Q33.6484-32.9531 31.6465-30.9023Q29.6445-28.8516 26.8125-28.8516Z"/>
   <path class="multicolor-2:systemYellowColor SFSymbolsPreviewFFCC00" d="M43.8047-43.9395Q40.3867-43.9395 37.9697-46.3564Q35.5527-48.7734 35.5527-52.1914Q35.5527-55.6582 37.9697-58.002Q40.3867-60.3457 43.8047-60.3457Q47.2227-60.3457 49.6641-58.002Q52.1055-55.6582 52.1055-52.1914Q52.1055-48.7734 49.6641-46.3564Q47.2227-43.9395 43.8047-43.9395Z"/>
   <path class="multicolor-3:systemGreenColor SFSymbolsPreview28CD41" d="M66.8027-51.0195Q63.9707-51.0195 61.9443-52.9971Q59.918-54.9746 59.918-57.8066Q59.918-60.6875 61.9443-62.665Q63.9707-64.6426 66.8027-64.6426Q69.5859-64.6426 71.5879-62.665Q73.5898-60.6875 73.5898-57.8066Q73.5898-54.9746 71.5879-52.9971Q69.5859-51.0195 66.8027-51.0195Z"/>
   <path class="multicolor-4:systemRedColor SFSymbolsPreviewFF3B30" d="M87.7988-47.9922Q85.5039-47.9922 83.8438-49.6035Q82.1836-51.2148 82.1836-53.5586Q82.1836-55.8535 83.8438-57.5137Q85.5039-59.1738 87.7988-59.1738Q90.1426-59.1738 91.7783-57.3672Q93.4141-55.5605 93.4141-53.5586Q93.4141-51.5078 91.7783-49.75Q90.1426-47.9922 87.7988-47.9922Z"/>
  </g>
  <g id="Heavy-S" transform="matrix(1 0 0 1 2579.05 696)">
   <path class="multicolor-0:systemGrayColor SFSymbolsPreview8E8E93" d="M60.5925 7.15419Q70.1758 7.15419 77.3727 4.96875Q84.5695 2.78332 88.5657-1.14675Q92.5619-5.07681 92.5619-10.2805Q92.5619-13.4483 91.6599-15.4889Q90.758-17.5295 89.563-18.9699Q88.3682-20.4103 87.4662-21.7416Q86.5642-23.0729 86.5642-24.7846Q86.5642-26.3383 88.1196-27.5474Q89.6749-28.7566 92.1394-29.94Q94.6039-31.1234 97.3799-32.6242Q100.156-34.125 102.615-36.2317Q105.073-38.3384 106.629-41.3872Q108.184-44.4359 108.184-48.7152Q108.184-57.3715 102.584-63.8578Q96.9834-70.3442 86.9-73.9329Q76.8165-77.5214 63.3872-77.5214Q50.7502-77.5214 40.3992-74.3723Q30.0482-71.2232 22.5937-65.482Q15.1393-59.7409 11.1126-51.8931Q7.08594-44.0453 7.08594-34.6736Q7.08594-25.2707 10.9173-17.5738Q14.7486-9.87681 21.8369-4.35682Q28.9252 1.1632 38.7576 4.15869Q48.5901 7.15419 60.5925 7.15419ZM60.9304-8.6825Q57.513-8.6825 54.69-10.3725Q51.8671-12.0626 50.1957-14.9099Q48.5243-17.7573 48.5243-21.1746Q48.5243-24.6035 50.1957-27.4451Q51.8671-30.2867 54.69-31.9767Q57.513-33.6667 60.9304-33.6667Q64.3965-33.6667 67.2439-31.9767Q70.0912-30.2867 71.7626-27.4451Q73.434-24.6035 73.434-21.1746Q73.434-15.6698 69.959-12.1761Q66.484-8.6825 60.9304-8.6825Z"/>
   <path class="multicolor-1:systemRedColor SFSymbolsPreviewFF3B30" d="M26.4783-29.0475Q23.6693-29.0475 21.6789-31.0809Q19.6885-33.1144 19.6885-35.8861Q19.6885-38.6721 21.6961-40.6554Q23.7039-42.6386 26.4783-42.6386Q29.2988-42.6386 31.2835-40.6727Q33.2681-38.7067 33.2681-35.8861Q33.2681-33.1144 31.2835-31.0809Q29.2988-29.0475 26.4783-29.0475Z"/>
   <path class="multicolor-2:systemYellowColor SFSymbolsPreviewFFCC00" d="M42.9865-43.8473Q39.5685-43.8473 37.1572-46.2469Q34.746-48.6466 34.746-52.0646Q34.746-55.5084 37.1572-57.8522Q39.5685-60.1959 42.9865-60.1959Q46.3814-60.1959 48.8055-57.8522Q51.2296-55.5084 51.2296-52.0646Q51.2296-48.6466 48.8055-46.2469Q46.3814-43.8473 42.9865-43.8473Z"/>
   <path class="multicolor-3:systemGreenColor SFSymbolsPreview28CD41" d="M65.3737-50.6853Q62.5647-50.6853 60.5498-52.6514Q58.5351-54.6173 58.5351-57.4378Q58.5351-60.2841 60.5498-62.2501Q62.5647-64.2162 65.3737-64.2162Q68.1453-64.2162 70.1358-62.2501Q72.1262-60.2841 72.1262-57.4378Q72.1262-54.6173 70.1358-52.6514Q68.1453-50.6853 65.3737-50.6853Z"/>
   <path class="multicolor-4:systemRedColor SFSymbolsPreviewFF3B30" d="M85.7474-47.5658Q83.4525-47.5658 81.804-49.1656Q80.1553-50.7653 80.1553-53.0976Q80.1553-55.381 81.804-57.0297Q83.4525-58.6783 85.7474-58.6783Q88.0682-58.6783 89.6866-56.9177Q91.3051-55.1572 91.3051-53.0976Q91.3051-50.9892 89.6866-49.2775Q88.0682-47.5658 85.7474-47.5658Z"/>
  </g>
  <g id="Bold-S" transform="matrix(1 0 0 1 2283.72 696)">
   <path class="multicolor-0:systemGrayColor SFSymbolsPreview8E8E93" d="M59.3808 5.86524Q68.4873 5.86524 75.3232 3.80225Q82.1592 1.73926 85.9555-1.97168Q89.7519-5.68262 89.7519-10.5899Q89.7519-13.6416 88.8242-15.6435Q87.8965-17.6455 86.6757-19.086Q85.4551-20.5264 84.5273-21.8447Q83.5996-23.1631 83.5996-24.8233Q83.5996-26.3125 85.1743-27.5087Q86.749-28.705 89.2392-29.9014Q91.7295-31.0977 94.5249-32.6113Q97.3201-34.125 99.7984-36.2124Q102.276-38.2998 103.851-41.2905Q105.426-44.2812 105.426-48.4317Q105.426-56.8301 100.006-63.1167Q94.5859-69.4033 84.8569-72.8824Q75.1279-76.3614 62.1885-76.3614Q49.835-76.3614 39.7031-73.3217Q29.5713-70.2823 22.2714-64.728Q14.9717-59.1738 11.0288-51.5322Q7.08594-43.8907 7.08594-34.6865Q7.08594-25.58 10.8335-18.1216Q14.581-10.6631 21.5146-5.3042Q28.4482 0.05469 38.0551 2.95996Q47.6621 5.86524 59.3808 5.86524ZM59.332-9.66212Q56.1338-9.66212 53.4848-11.249Q50.8359-12.836 49.2612-15.5093Q47.6865-18.1826 47.6865-21.3809Q47.6865-24.6035 49.2612-27.2646Q50.8359-29.9258 53.4848-31.5127Q56.1338-33.0996 59.332-33.0996Q62.5791-33.0996 65.2524-31.5127Q67.9257-29.9258 69.5005-27.2646Q71.0752-24.6035 71.0752-21.3809Q71.0752-16.3271 67.7549-12.9946Q64.4345-9.66212 59.332-9.66212Z"/>
   <path class="multicolor-1:systemRedColor SFSymbolsPreviewFF3B30" d="M26.1045-29.2666Q23.3213-29.2666 21.3437-31.2807Q19.3662-33.2949 19.3662-36.0537Q19.3662-38.7881 21.3803-40.7779Q23.3945-42.7675 26.1045-42.7675Q28.9121-42.7675 30.8774-40.8145Q32.8427-38.8614 32.8427-36.0537Q32.8427-33.2949 30.8774-31.2807Q28.9121-29.2666 26.1045-29.2666Z"/>
   <path class="multicolor-2:systemYellowColor SFSymbolsPreviewFFCC00" d="M42.0713-43.7442Q38.6533-43.7442 36.2485-46.1245Q33.8437-48.5049 33.8437-51.9228Q33.8437-55.3408 36.2485-57.6846Q38.6533-60.0283 42.0713-60.0283Q45.4404-60.0283 47.8452-57.6846Q50.25-55.3408 50.25-51.9228Q50.25-48.5049 47.8452-46.1245Q45.4404-43.7442 42.0713-43.7442Z"/>
   <path class="multicolor-3:systemGreenColor SFSymbolsPreview28CD41" d="M63.7753-50.3115Q60.9922-50.3115 58.9902-52.2647Q56.9883-54.2178 56.9883-57.0254Q56.9883-59.833 58.9902-61.7861Q60.9922-63.7392 63.7753-63.7392Q66.5341-63.7392 68.5117-61.7861Q70.4892-59.833 70.4892-57.0254Q70.4892-54.2178 68.5117-52.2647Q66.5341-50.3115 63.7753-50.3115Z"/>
   <path class="multicolor-4:systemRedColor SFSymbolsPreviewFF3B30" d="M83.4531-47.0888Q81.1582-47.0888 79.5225-48.6757Q77.8867-50.2626 77.8867-52.582Q77.8867-54.8525 79.5225-56.4883Q81.1582-58.124 83.4531-58.124Q85.748-58.124 87.3471-56.415Q88.9463-54.706 88.9463-52.582Q88.9463-50.4091 87.3471-48.749Q85.748-47.0888 83.4531-47.0888Z"/>
  </g>
  <g id="Semibold-S" transform="matrix(1 0 0 1 1987.96 696)">
   <path class="multicolor-0:systemGrayColor SFSymbolsPreview8E8E93" d="M58.5455 4.97656Q67.3232 4.97656 73.9103 2.998Q80.4974 1.01943 84.156-2.54043Q87.8147-6.1003 87.8147-10.8031Q87.8147-13.7749 86.8691-15.7502Q85.9237-17.7255 84.6851-19.1659Q83.4467-20.6063 82.5012-21.9158Q81.5557-23.2253 81.5557-24.8499Q81.5557-26.2947 83.1437-27.4821Q84.7317-28.6695 87.2397-29.8747Q89.7478-31.0799 92.5565-32.6024Q95.3651-34.125 97.8567-36.1991Q100.348-38.2732 101.936-41.2239Q103.524-44.1746 103.524-48.2361Q103.524-56.4569 98.2286-62.6057Q92.933-68.7546 83.4484-72.1581Q73.9638-75.5616 61.362-75.5616Q49.204-75.5616 39.2233-72.5975Q29.2425-69.6335 22.0493-64.2081Q14.8562-58.7828 10.971-51.2834Q7.08594-43.784 7.08594-34.6954Q7.08594-25.7933 10.7757-18.4993Q14.4655-11.2051 21.2925-5.95737Q28.1194-0.709568 37.5708 2.1335Q47.0223 4.97656 58.5455 4.97656ZM58.2301-10.3375Q55.1829-10.3375 52.6539-11.8533Q50.125-13.3692 48.6169-15.9225Q47.1089-18.4759 47.1089-21.523Q47.1089-24.6035 48.6169-27.1403Q50.125-29.677 52.6539-31.1928Q55.1829-32.7086 58.2301-32.7086Q61.3261-32.7086 63.8795-31.1928Q66.4328-29.677 67.9409-27.1403Q69.4489-24.6035 69.4489-21.523Q69.4489-16.7804 66.2353-13.5589Q63.0216-10.3375 58.2301-10.3375Z"/>
   <path class="multicolor-1:systemRedColor SFSymbolsPreviewFF3B30" d="M25.8468-29.4177Q23.0814-29.4177 21.1127-31.4185Q19.1441-33.4193 19.1441-36.1692Q19.1441-38.8681 21.1626-40.8623Q23.1813-42.8564 25.8468-42.8564Q28.6455-42.8564 30.5975-40.9122Q32.5495-38.968 32.5495-36.1692Q32.5495-33.4193 30.5975-31.4185Q28.6455-29.4177 25.8468-29.4177Z"/>
   <path class="multicolor-2:systemYellowColor SFSymbolsPreviewFFCC00" d="M41.4403-43.673Q38.0223-43.673 35.622-46.0401Q33.2217-48.4071 33.2217-51.8251Q33.2217-55.2253 35.622-57.5691Q38.0223-59.9128 41.4403-59.9128Q44.7917-59.9128 47.1832-57.5691Q49.5746-55.2253 49.5746-51.8251Q49.5746-48.4071 47.1832-46.0401Q44.7917-43.673 41.4403-43.673Z"/>
   <path class="multicolor-3:systemGreenColor SFSymbolsPreview28CD41" d="M62.6734-50.0538Q59.908-50.0538 57.9149-51.998Q55.9219-53.9423 55.9219-56.741Q55.9219-59.522 57.9149-61.4662Q59.908-63.4104 62.6734-63.4104Q65.4233-63.4104 67.392-61.4662Q69.3606-59.522 69.3606-56.741Q69.3606-53.9423 67.392-51.998Q65.4233-50.0538 62.6734-50.0538Z"/>
   <path class="multicolor-4:systemRedColor SFSymbolsPreviewFF3B30" d="M81.8713-46.76Q79.5764-46.76 77.9495-48.338Q76.3226-49.9161 76.3226-52.2266Q76.3226-54.4882 77.9495-56.1151Q79.5764-57.7419 81.8713-57.7419Q84.1484-57.7419 85.7342-56.0685Q87.32-54.395 87.32-52.2266Q87.32-50.0092 85.7342-48.3846Q84.1484-46.76 81.8713-46.76Z"/>
  </g>
  <g id="Medium-S" transform="matrix(1 0 0 1 1691.97 696)">
   <path class="multicolor-0:systemGrayColor SFSymbolsPreview8E8E93" d="M57.9121 4.30274Q66.4405 4.30274 72.8389 2.38818Q79.2373 0.473634 82.7915-2.97168Q86.3457-6.41699 86.3457-10.9649Q86.3457-13.876 85.3867-15.831Q84.4278-17.7861 83.1757-19.2266Q81.9238-20.667 80.9648-21.9697Q80.0059-23.2725 80.0059-24.8701Q80.0059-26.2813 81.604-27.4619Q83.2021-28.6426 85.7236-29.8545Q88.2451-31.0664 91.064-32.5957Q93.8827-34.125 96.3843-36.189Q98.8857-38.253 100.484-41.1733Q102.082-44.0938 102.082-48.0879Q102.082-56.1738 96.8809-62.2183Q91.6797-68.2627 82.3804-71.6089Q73.0811-74.9551 60.7354-74.9551Q48.7256-74.9551 38.8594-72.0483Q28.9932-69.1416 21.8808-63.814Q14.7686-58.4863 10.9272-51.0947Q7.08594-43.7032 7.08594-34.7021Q7.08594-25.9551 10.7319-18.7857Q14.3779-11.6162 21.124-6.45264Q27.8701-1.28906 37.2036 1.50684Q46.5371 4.30274 57.9121 4.30274ZM57.3945-10.8496Q54.4619-10.8496 52.0239-12.3115Q49.5859-13.7735 48.1284-16.2358Q46.6709-18.6983 46.6709-21.6309Q46.6709-24.6035 48.1284-27.0459Q49.5859-29.4883 52.0239-30.9502Q54.4619-32.4121 57.3945-32.4121Q60.376-32.4121 62.8384-30.9502Q65.3008-29.4883 66.7583-27.0459Q68.2158-24.6035 68.2158-21.6309Q68.2158-17.124 65.083-13.9868Q61.9502-10.8496 57.3945-10.8496Z"/>
   <path class="multicolor-1:systemRedColor SFSymbolsPreviewFF3B30" d="M25.6514-29.5322Q22.8994-29.5322 20.9375-31.523Q18.9756-33.5137 18.9756-36.2568Q18.9756-38.9287 20.9975-40.9263Q23.0195-42.9238 25.6514-42.9238Q28.4434-42.9238 30.3853-40.9863Q32.3271-39.0488 32.3271-36.2568Q32.3271-33.5137 30.3853-31.523Q28.4434-29.5322 25.6514-29.5322Z"/>
   <path class="multicolor-2:systemYellowColor SFSymbolsPreviewFFCC00" d="M40.9619-43.6191Q37.5439-43.6191 35.1469-45.9761Q32.75-48.333 32.75-51.751Q32.75-55.1377 35.1469-57.4815Q37.5439-59.8252 40.9619-59.8252Q44.2998-59.8252 46.6812-57.4815Q49.0625-55.1377 49.0625-51.751Q49.0625-48.333 46.6812-45.9761Q44.2998-43.6191 40.9619-43.6191Z"/>
   <path class="multicolor-3:systemGreenColor SFSymbolsPreview28CD41" d="M61.8378-49.8584Q59.086-49.8584 57.0996-51.7959Q55.1133-53.7334 55.1133-56.5254Q55.1133-59.2861 57.0996-61.2236Q59.086-63.1611 61.8378-63.1611Q64.581-63.1611 66.5429-61.2236Q68.5049-59.2861 68.5049-56.5254Q68.5049-53.7334 66.5429-51.7959Q64.581-49.8584 61.8378-49.8584Z"/>
   <path class="multicolor-4:systemRedColor SFSymbolsPreviewFF3B30" d="M80.6719-46.5107Q78.377-46.5107 76.7569-48.082Q75.1367-49.6533 75.1367-51.9571Q75.1367-54.2119 76.7569-55.832Q78.377-57.4521 80.6719-57.4521Q82.9355-57.4521 84.5112-55.8057Q86.0869-54.1592 86.0869-51.9571Q86.0869-49.706 84.5112-48.1084Q82.9355-46.5107 80.6719-46.5107Z"/>
  </g>
  <g id="Regular-S" transform="matrix(1 0 0 1 1396.2 696)">
   <path class="multicolor-0:systemGrayColor SFSymbolsPreview8E8E93" d="M57.0859 3.42383Q65.2891 3.42383 71.4414 1.59277Q77.5938-0.238281 81.0117-3.53418Q84.4297-6.83008 84.4297-11.1758Q84.4297-14.0078 83.4531-15.9365Q82.4766-17.8652 81.207-19.3057Q79.9375-20.7461 78.9609-22.04Q77.9844-23.334 77.9844-24.8965Q77.9844-26.2637 79.5957-27.4355Q81.207-28.6074 83.7461-29.8281Q86.2852-31.0488 89.1172-32.5869Q91.9492-34.125 94.4639-36.1758Q96.9785-38.2266 98.5898-41.1074Q100.201-43.9883 100.201-47.8945Q100.201-55.8047 95.123-61.7129Q90.0449-67.6211 80.9873-70.8926Q71.9297-74.1641 59.918-74.1641Q48.1016-74.1641 38.3848-71.332Q28.668-68.5 21.6611-63.2998Q14.6543-58.0996 10.8701-50.8486Q7.08594-43.5977 7.08594-34.7109Q7.08594-26.166 10.6748-19.1592Q14.2637-12.1523 20.9043-7.09863Q27.5449-2.04492 36.7246 0.689453Q45.9043 3.42383 57.0859 3.42383ZM56.3047-11.5176Q53.5215-11.5176 51.2021-12.9092Q48.8828-14.3008 47.4912-16.6445Q46.0996-18.9883 46.0996-21.7715Q46.0996-24.6035 47.4912-26.9229Q48.8828-29.2422 51.2021-30.6338Q53.5215-32.0254 56.3047-32.0254Q59.1367-32.0254 61.4805-30.6338Q63.8242-29.2422 65.2158-26.9229Q66.6074-24.6035 66.6074-21.7715Q66.6074-17.5723 63.5801-14.5449Q60.5527-11.5176 56.3047-11.5176Z"/>
   <path class="multicolor-1:systemRedColor SFSymbolsPreviewFF3B30" d="M25.3965-29.6816Q22.6621-29.6816 20.709-31.6592Q18.7559-33.6367 18.7559-36.3711Q18.7559-39.0078 20.7822-41.0098Q22.8086-43.0117 25.3965-43.0117Q28.1797-43.0117 30.1084-41.083Q32.0371-39.1543 32.0371-36.3711Q32.0371-33.6367 30.1084-31.6592Q28.1797-29.6816 25.3965-29.6816Z"/>
   <path class="multicolor-2:systemYellowColor SFSymbolsPreviewFFCC00" d="M40.3379-43.5488Q36.9199-43.5488 34.5273-45.8926Q32.1348-48.2363 32.1348-51.6543Q32.1348-55.0234 34.5273-57.3672Q36.9199-59.7109 40.3379-59.7109Q43.6582-59.7109 46.0264-57.3672Q48.3945-55.0234 48.3945-51.6543Q48.3945-48.2363 46.0264-45.8926Q43.6582-43.5488 40.3379-43.5488Z"/>
   <path class="multicolor-3:systemGreenColor SFSymbolsPreview28CD41" d="M60.748-49.6035Q58.0137-49.6035 56.0361-51.5322Q54.0586-53.4609 54.0586-56.2441Q54.0586-58.9785 56.0361-60.9072Q58.0137-62.8359 60.748-62.8359Q63.4824-62.8359 65.4355-60.9072Q67.3887-58.9785 67.3887-56.2441Q67.3887-53.4609 65.4355-51.5322Q63.4824-49.6035 60.748-49.6035Z"/>
   <path class="multicolor-4:systemRedColor SFSymbolsPreviewFF3B30" d="M79.1074-46.1855Q76.8125-46.1855 75.2012-47.748Q73.5898-49.3105 73.5898-51.6055Q73.5898-53.8516 75.2012-55.4629Q76.8125-57.0742 79.1074-57.0742Q81.3535-57.0742 82.916-55.4629Q84.4785-53.8516 84.4785-51.6055Q84.4785-49.3105 82.916-47.748Q81.3535-46.1855 79.1074-46.1855Z"/>
  </g>
  <g id="Light-S" transform="matrix(1 0 0 1 1100.37 696)">
   <path class="multicolor-0:systemGrayColor SFSymbolsPreview8E8E93" d="M56.208 2.54594Q64.1236 2.54594 70.079 0.820804Q76.0346-0.904327 79.3466-4.00339Q82.6587-7.10245 82.6587-11.1758Q82.6587-13.9623 81.6821-15.8002Q80.7056-17.6381 79.4208-19.0257Q78.1362-20.4132 77.1521-21.7374Q76.1681-23.0616 76.1681-24.8057Q76.1681-26.4303 77.7869-27.708Q79.4057-28.9858 81.9448-30.2065Q84.4839-31.4272 87.3235-32.8972Q90.1632-34.3671 92.6854-36.3422Q95.2075-38.3174 96.8188-41.1377Q98.4302-43.958 98.4302-47.8945Q98.4302-55.5323 93.4807-61.2437Q88.5312-66.9551 79.6705-70.1206Q70.8097-73.2862 59.0401-73.2862Q47.3903-73.2862 37.8399-70.5223Q28.2896-67.7584 21.4037-62.6641Q14.518-57.5699 10.8019-50.4778Q7.08594-43.3858 7.08594-34.7109Q7.08594-26.3628 10.6066-19.515Q14.1274-12.667 20.6469-7.73441Q27.1665-2.80176 36.1872-0.127908Q45.208 2.54594 56.208 2.54594ZM55.2905-11.7597Q52.5226-11.7597 50.2258-13.1362Q47.9291-14.5126 46.5603-16.8186Q45.1915-19.1246 45.1915-21.8925Q45.1915-24.6943 46.5603-26.991Q47.9291-29.2877 50.2258-30.6566Q52.5226-32.0254 55.2905-32.0254Q58.0772-32.0254 60.3908-30.6566Q62.7042-29.2877 64.0731-26.991Q65.4419-24.6943 65.4419-21.8925Q65.4419-17.7236 62.46-14.7416Q59.478-11.7597 55.2905-11.7597Z"/>
   <path class="multicolor-1:systemRedColor SFSymbolsPreviewFF3B30" d="M24.9726-30.2719Q22.4653-30.2719 20.6485-32.1056Q18.8317-33.9393 18.8317-36.4619Q18.8317-38.932 20.6914-40.7599Q22.5512-42.5878 24.9726-42.5878Q27.5592-42.5878 29.3364-40.8105Q31.1137-39.0332 31.1137-36.4619Q31.1137-33.9393 29.3213-32.1056Q27.5289-30.2719 24.9726-30.2719Z"/>
   <path class="multicolor-2:systemYellowColor SFSymbolsPreviewFFCC00" d="M39.475-43.5488Q36.1175-43.5488 33.7705-45.8547Q31.4235-48.1605 31.4235-51.503Q31.4235-54.7963 33.7705-57.0947Q36.1175-59.393 39.475-59.393Q42.7348-59.393 45.0652-57.0872Q47.3956-54.7813 47.3956-51.503Q47.3956-48.1605 45.0728-45.8547Q42.75-43.5488 39.475-43.5488Z"/>
   <path class="multicolor-3:systemGreenColor SFSymbolsPreview28CD41" d="M59.8701-49.6035Q57.2721-49.6035 55.4005-51.4338Q53.5289-53.2641 53.5289-55.881Q53.5289-58.479 55.4005-60.3093Q57.2721-62.1396 59.8701-62.1396Q62.4835-62.1396 64.3154-60.3168Q66.1474-58.494 66.1474-55.881Q66.1474-53.2491 64.3154-51.4263Q62.4835-49.6035 59.8701-49.6035Z"/>
   <path class="multicolor-4:systemRedColor SFSymbolsPreviewFF3B30" d="M77.6393-46.3218Q75.4957-46.3218 74.0054-47.7783Q72.5151-49.2347 72.5151-51.3481Q72.5151-53.4276 74.0129-54.9104Q75.5107-56.3932 77.6393-56.3932Q79.6885-56.3932 81.1375-54.9104Q82.5864-53.4276 82.5864-51.3481Q82.5864-49.2197 81.145-47.7708Q79.7035-46.3218 77.6393-46.3218Z"/>
  </g>
  <g id="Thin-S" transform="matrix(1 0 0 1 804.835 696)">
   <path class="multicolor-0:systemGrayColor SFSymbolsPreview8E8E93" d="M55.047 1.38486Q62.5821 1.38486 68.2772-0.200184Q73.9724-1.78523 77.1444-4.62395Q80.3163-7.46268 80.3163-11.1758Q80.3163-13.902 79.3397-15.6199Q78.3632-17.3377 77.0585-18.6554Q75.7538-19.9729 74.7598-21.3371Q73.7659-22.7014 73.7659-24.6856Q73.7659-26.6506 75.3946-28.0684Q77.0233-29.4863 79.5624-30.707Q82.1015-31.9277 84.9513-33.3075Q87.801-34.6873 90.3331-36.5624Q92.8651-38.4374 94.4764-41.1777Q96.0878-43.918 96.0878-47.8945Q96.0878-55.1721 91.3085-60.6231Q86.5293-66.0742 77.9288-69.0996Q69.3284-72.1251 57.879-72.1251Q46.4495-72.1251 37.1193-69.4513Q27.7891-66.7777 21.0633-61.8234Q14.3377-56.8693 10.7118-49.9875Q7.08594-43.1056 7.08594-34.7109Q7.08594-26.6232 10.5165-19.9855Q13.9471-13.3478 20.3065-8.57529Q26.666-3.80273 35.4765-1.20893Q44.2871 1.38486 55.047 1.38486ZM53.9491-12.0799Q51.2014-12.0799 48.9346-13.4363Q46.6678-14.7928 45.3291-17.0489Q43.9904-19.3049 43.9904-22.0526Q43.9904-24.8144 45.3291-27.0811Q46.6678-29.348 48.9346-30.6867Q51.2014-32.0254 53.9491-32.0254Q56.676-32.0254 58.9495-30.6867Q61.2229-29.348 62.5617-27.0811Q63.9004-24.8144 63.9004-22.0526Q63.9004-17.9237 60.9785-15.0018Q58.0566-12.0799 53.9491-12.0799Z"/>
   <path class="multicolor-1:systemRedColor SFSymbolsPreviewFF3B30" d="M24.4119-31.0525Q22.2049-31.0525 20.5684-32.6961Q18.9319-34.3396 18.9319-36.582Q18.9319-38.8318 20.5714-40.4295Q22.2108-42.0271 24.4119-42.0271Q26.7385-42.0271 28.3154-40.4501Q29.8924-38.8731 29.8924-36.582Q29.8924-34.3396 28.2803-32.6961Q26.6682-31.0525 24.4119-31.0525Z"/>
   <path class="multicolor-2:systemYellowColor SFSymbolsPreviewFFCC00" d="M38.3337-43.5488Q35.0563-43.5488 32.7695-45.8046Q30.4827-48.0603 30.4827-51.3028Q30.4827-54.4959 32.7695-56.7343Q35.0563-58.9726 38.3337-58.9726Q41.5135-58.9726 43.7939-56.7169Q46.0744-54.4611 46.0744-51.3028Q46.0744-48.0603 43.8117-45.8046Q41.5489-43.5488 38.3337-43.5488Z"/>
   <path class="multicolor-3:systemGreenColor SFSymbolsPreview28CD41" d="M58.7091-49.6035Q56.2913-49.6035 54.5598-51.3037Q52.8283-53.0037 52.8283-55.4007Q52.8283-57.8184 54.5598-59.5186Q56.2913-61.2187 58.7091-61.2187Q61.1623-61.2187 62.834-59.536Q64.5057-57.8533 64.5057-55.4007Q64.5057-52.9689 62.834-51.2862Q61.1623-49.6035 58.7091-49.6035Z"/>
   <path class="multicolor-4:systemRedColor SFSymbolsPreviewFF3B30" d="M75.6975-46.5021Q73.754-46.5021 72.4239-47.8183Q71.0937-49.1345 71.0937-51.0077Q71.0937-52.8669 72.4413-54.1797Q73.7889-55.4924 75.6975-55.4924Q77.4865-55.4924 78.7852-54.1797Q80.0839-52.8669 80.0839-51.0077Q80.0839-49.0997 78.8026-47.8009Q77.5213-46.5021 75.6975-46.5021Z"/>
  </g>
  <g id="Ultralight-S" transform="matrix(1 0 0 1 508.724 696)">
   <path class="multicolor-0:systemGrayColor SFSymbolsPreview8E8E93" d="M54.4523 0.790161Q61.7925 0.790161 67.3543-0.723129Q72.9162-2.23642 76.0164-4.9418Q79.1166-7.64719 79.1166-11.1758Q79.1166-13.8712 78.14-15.5276Q77.1635-17.1839 75.8485-18.4657Q74.5336-19.7474 73.5345-21.1321Q72.5355-22.5169 72.5355-24.6241Q72.5355-26.7634 74.1693-28.253Q75.8031-29.7427 78.3422-30.9634Q80.8813-32.1841 83.7362-33.5177Q86.5911-34.8513 89.1283-36.6751Q91.6654-38.4989 93.2767-41.1982Q94.8881-43.8975 94.8881-47.8945Q94.8881-54.9876 90.196-60.3053Q85.5039-65.623 77.0368-68.5767Q68.5697-71.5304 57.2843-71.5304Q45.9676-71.5304 36.7502-68.9028Q27.5327-66.2753 20.889-61.3928Q14.2454-56.5104 10.6656-49.7363Q7.08594-42.9621 7.08594-34.7109Q7.08594-26.7565 10.4703-20.2265Q13.8547-13.6965 20.1322-9.00598Q26.4097-4.31543 35.1125-1.76263Q43.8154 0.790161 54.4523 0.790161ZM53.2621-12.2439Q50.5247-12.2439 48.2732-13.5901Q46.0218-14.9363 44.6985-17.1668Q43.3752-19.3972 43.3752-22.1346Q43.3752-24.8759 44.6985-27.1273Q46.0218-29.3788 48.2732-30.7021Q50.5247-32.0254 53.2621-32.0254Q55.9583-32.0254 58.2113-30.7021Q60.4642-29.3788 61.7876-27.1273Q63.1109-24.8759 63.1109-22.1346Q63.1109-18.0262 60.2197-15.1351Q57.3286-12.2439 53.2621-12.2439Z"/>
   <path class="multicolor-1:systemRedColor SFSymbolsPreviewFF3B30" d="M24.1247-31.4524Q22.0716-31.4524 20.5274-32.9985Q18.9832-34.5446 18.9832-36.6435Q18.9832-38.7805 20.5099-40.2602Q22.0365-41.7399 24.1247-41.7399Q26.3181-41.7399 27.7925-40.2655Q29.2669-38.7911 29.2669-36.6435Q29.2669-34.5446 27.7471-32.9985Q26.2273-31.4524 24.1247-31.4524Z"/>
   <path class="multicolor-2:systemYellowColor SFSymbolsPreviewFFCC00" d="M37.7492-43.5488Q34.5128-43.5488 32.2568-45.7789Q30.0008-48.009 30.0008-51.2003Q30.0008-54.3421 32.2568-56.5497Q34.5128-58.7573 37.7492-58.7573Q40.888-58.7573 43.1428-56.5272Q45.3977-54.2971 45.3977-51.2003Q45.3977-48.009 43.1657-45.7789Q40.9337-43.5488 37.7492-43.5488Z"/>
   <path class="multicolor-3:systemGreenColor SFSymbolsPreview28CD41" d="M58.1144-49.6035Q55.7889-49.6035 54.1292-51.237Q52.4694-52.8704 52.4694-55.1547Q52.4694-57.4801 54.1292-59.1136Q55.7889-60.747 58.1144-60.747Q60.4856-60.747 62.0752-59.1361Q63.6648-57.5251 63.6648-55.1547Q63.6648-52.8254 62.0752-51.2145Q60.4856-49.6035 58.1144-49.6035Z"/>
   <path class="multicolor-4:systemRedColor SFSymbolsPreviewFF3B30" d="M74.703-46.5945Q72.862-46.5945 71.6138-47.8388Q70.3657-49.0832 70.3657-50.8334Q70.3657-52.5797 71.6363-53.8054Q72.907-55.0311 74.703-55.0311Q76.3586-55.0311 77.5804-53.8054Q78.8022-52.5797 78.8022-50.8334Q78.8022-49.0382 77.6029-47.8163Q76.4036-46.5945 74.703-46.5945Z"/>
  </g>
 </g>
</svg>
